<svg xmlns="http://www.w3.org/2000/svg" xmlns:xlink="http://www.w3.org/1999/xlink" width="2300" zoomAndPan="magnify" viewBox="0 0 1724.88 1724.999932" height="2300" preserveAspectRatio="xMidYMid meet" version="1.0"><defs><clipPath id="0a641658fa"><path d="M 19.683594 19.742188 L 1704.558594 19.742188 L 1704.558594 1704.621094 L 19.683594 1704.621094 Z M 19.683594 19.742188 " clip-rule="nonzero"/></clipPath><clipPath id="40de6a5083"><path d="M 783 1450 L 846 1450 L 846 1491 L 783 1491 Z M 783 1450 " clip-rule="nonzero"/></clipPath><clipPath id="382339c8d4"><path d="M 817.730469 1434.097656 L 845.964844 1451.003906 L 812.152344 1507.472656 L 783.917969 1490.566406 Z M 817.730469 1434.097656 " clip-rule="nonzero"/></clipPath><clipPath id="dd3fb3ae67"><path d="M 817.730469 1434.097656 L 845.964844 1451.003906 L 812.152344 1507.472656 L 783.917969 1490.566406 Z M 817.730469 1434.097656 " clip-rule="nonzero"/></clipPath><clipPath id="5f3221cf68"><path d="M 860 1442 L 888 1442 L 888 1516 L 860 1516 Z M 860 1442 " clip-rule="nonzero"/></clipPath><clipPath id="d9bf911298"><path d="M 846.121094 1454.800781 L 876.527344 1442.21875 L 901.691406 1503.035156 L 871.28125 1515.617188 Z M 846.121094 1454.800781 " clip-rule="nonzero"/></clipPath><clipPath id="1268da0ad9"><path d="M 846.121094 1454.800781 L 876.527344 1442.21875 L 901.691406 1503.035156 L 871.28125 1515.617188 Z M 846.121094 1454.800781 " clip-rule="nonzero"/></clipPath><clipPath id="c7cde37fd6"><path d="M 913 1441 L 949 1441 L 949 1507 L 913 1507 Z M 913 1441 " clip-rule="nonzero"/></clipPath><clipPath id="d4541075b3"><path d="M 894.710938 1467.707031 L 913.972656 1441.027344 L 967.335938 1479.546875 L 948.074219 1506.230469 Z M 894.710938 1467.707031 " clip-rule="nonzero"/></clipPath><clipPath id="ddf03f398a"><path d="M 894.710938 1467.707031 L 913.972656 1441.027344 L 967.335938 1479.546875 L 948.074219 1506.230469 Z M 894.710938 1467.707031 " clip-rule="nonzero"/></clipPath><clipPath id="1d6f022f4b"><path d="M 769 1222 L 981 1222 L 981 1434 L 769 1434 Z M 769 1222 " clip-rule="nonzero"/></clipPath><clipPath id="277ef5f654"><path d="M 856.214844 1180.324219 L 1022.671875 1309.347656 L 893.648438 1475.808594 L 727.1875 1346.78125 Z M 856.214844 1180.324219 " clip-rule="nonzero"/></clipPath><clipPath id="d751e86d6c"><path d="M 856.214844 1180.324219 L 1022.671875 1309.347656 L 893.648438 1475.808594 L 727.1875 1346.78125 Z M 856.214844 1180.324219 " clip-rule="nonzero"/></clipPath><clipPath id="347c755540"><path d="M 939.445312 1244.835938 C 893.476562 1209.207031 827.332031 1217.585938 791.699219 1263.550781 C 756.070312 1309.519531 764.453125 1375.664062 810.417969 1411.292969 C 856.382812 1446.925781 922.53125 1438.542969 958.160156 1392.578125 C 993.789062 1346.613281 985.410156 1280.464844 939.445312 1244.835938 " clip-rule="nonzero"/></clipPath><clipPath id="6d763a5436"><path d="M 812 1263 L 938 1263 L 938 1389 L 812 1389 Z M 812 1263 " clip-rule="nonzero"/></clipPath><clipPath id="4b4390332d"><path d="M 863.5 1237.882812 L 962.332031 1314.492188 L 885.722656 1413.328125 L 786.890625 1336.71875 Z M 863.5 1237.882812 " clip-rule="nonzero"/></clipPath><clipPath id="7040f6e19e"><path d="M 812 1263 L 938 1263 L 938 1389 L 812 1389 Z M 812 1263 " clip-rule="nonzero"/></clipPath><clipPath id="b04008b336"><path d="M 863.5 1237.882812 L 962.332031 1314.492188 L 885.722656 1413.328125 L 786.890625 1336.71875 Z M 863.5 1237.882812 " clip-rule="nonzero"/></clipPath><clipPath id="083e0c9964"><path d="M 863.5 1237.882812 L 962.332031 1314.492188 L 885.722656 1413.328125 L 786.890625 1336.71875 Z M 863.5 1237.882812 " clip-rule="nonzero"/></clipPath><clipPath id="298e3af1f7"><path d="M 912.917969 1276.1875 C 885.625 1255.03125 846.347656 1260.007812 825.195312 1287.300781 C 804.039062 1314.59375 809.015625 1353.867188 836.308594 1375.023438 C 863.597656 1396.175781 902.875 1391.203125 924.027344 1363.910156 C 945.183594 1336.617188 940.207031 1297.339844 912.917969 1276.1875 " clip-rule="nonzero"/></clipPath><clipPath id="b1f183fce4"><path d="M 963 1227 L 1020 1227 L 1020 1404 L 963 1404 Z M 963 1227 " clip-rule="nonzero"/></clipPath><clipPath id="86718391e0"><path d="M 969.160156 1227.804688 L 1067.996094 1304.414062 L 991.386719 1403.25 L 892.550781 1326.640625 Z M 969.160156 1227.804688 " clip-rule="nonzero"/></clipPath><clipPath id="e0fdae5e6a"><path d="M 969.160156 1227.804688 L 1067.996094 1304.414062 L 991.386719 1403.25 L 892.550781 1326.640625 Z M 969.160156 1227.804688 " clip-rule="nonzero"/></clipPath><clipPath id="2a2c980c62"><path d="M 730 1251 L 787 1251 L 787 1428 L 730 1428 Z M 730 1251 " clip-rule="nonzero"/></clipPath><clipPath id="eb78d43319"><path d="M 780.707031 1427.203125 L 681.871094 1350.59375 L 758.480469 1251.757812 L 857.316406 1328.367188 Z M 780.707031 1427.203125 " clip-rule="nonzero"/></clipPath><clipPath id="95e9621066"><path d="M 780.707031 1427.203125 L 681.871094 1350.59375 L 758.480469 1251.757812 L 857.316406 1328.367188 Z M 780.707031 1427.203125 " clip-rule="nonzero"/></clipPath></defs><g clip-path="url(#0a641658fa)"><path fill="#52c000" d="M 862.121094 19.742188 C 396.855469 19.742188 19.683594 396.917969 19.683594 862.183594 C 19.683594 1327.445312 396.855469 1704.621094 862.121094 1704.621094 C 1327.386719 1704.621094 1704.558594 1327.445312 1704.558594 862.183594 C 1704.558594 396.917969 1327.386719 19.742188 862.121094 19.742188 " fill-opacity="1" fill-rule="nonzero"/></g><path fill="#ffffff" d="M 760.140625 253.085938 C 760.832031 253.359375 761.386719 253.636719 761.988281 253.960938 C 792.839844 261.796875 818.140625 255.664062 845.570312 239.4375 C 853.800781 234.644531 867.308594 231.417969 876.882812 231.972656 C 903.617188 233.308594 935.253906 242.941406 956.667969 217.171875 C 964.996094 207.214844 971.195312 196.707031 976.789062 185.640625 C 881.136719 185.363281 785.347656 183.9375 689.878906 190.804688 C 702.738281 221.183594 728.039062 242.667969 760.140625 253.085938 " fill-opacity="1" fill-rule="nonzero"/><path fill="#ffffff" d="M 1083.542969 857.859375 C 1065.410156 847.671875 1040.019531 832.828125 1016.476562 809.730469 C 1004.867188 798.070312 995.382812 785.070312 988.675781 772.300781 C 981.738281 759.484375 978.5 746.667969 976.605469 736.15625 C 975.125 725.371094 974.753906 716.703125 975.726562 710.757812 C 976.375 704.855469 977.253906 701.582031 978.410156 701.582031 C 981.089844 701.582031 982.15625 714.492188 987.707031 733.578125 C 990.851562 742.933594 994.78125 754.042969 1001.675781 765.109375 C 1008.425781 776.21875 1017.214844 787.558594 1027.945312 798.34375 C 1049.730469 819.644531 1073.273438 835.730469 1089.785156 848.316406 C 1106.34375 860.765625 1116.242188 869.246094 1114.996094 871.136719 C 1113.746094 872.980469 1101.859375 867.910156 1083.542969 857.859375 Z M 928.085938 479.476562 C 927.113281 477.679688 931.738281 471.734375 941.960938 464.957031 C 953.199219 458.085938 969.992188 452.648438 988.769531 450.851562 C 1007.457031 449.28125 1024.105469 450.527344 1035.902344 452.046875 C 1047.789062 453.707031 1055.097656 455.78125 1055.097656 457.996094 C 1055.097656 460.207031 1047.695312 462.191406 1035.808594 463.527344 C 1023.921875 464.863281 1007.640625 465.464844 990.296875 466.890625 C 972.949219 468.597656 957.78125 471.824219 947.417969 475.007812 C 936.597656 478.832031 929.242188 481.597656 928.085938 479.476562 Z M 885.808594 977.578125 C 883.21875 1083.699219 877.484375 1169.675781 872.953125 1169.675781 C 868.464844 1169.582031 867.03125 1083.421875 869.714844 977.300781 C 872.304688 871.136719 878.039062 785.160156 882.570312 785.160156 C 887.058594 785.160156 888.492188 871.367188 885.808594 977.578125 Z M 877.761719 1394.175781 C 873.273438 1394.175781 869.714844 1363.707031 869.714844 1326.136719 C 869.714844 1288.519531 873.273438 1258.046875 877.761719 1258.046875 C 882.25 1258.046875 885.808594 1288.519531 885.808594 1326.136719 C 885.808594 1363.707031 882.25 1394.175781 877.761719 1394.175781 Z M 779.703125 742.566406 C 771.472656 760.914062 757.964844 786.128906 735.71875 808.855469 C 713.378906 831.582031 686.273438 844.398438 666.429688 849.46875 C 646.078125 854.632812 633.914062 853.847656 633.359375 852.050781 C 632.664062 849.652344 645.246094 846.105469 662.777344 838.773438 C 680.492188 831.214844 703.804688 818.214844 724.199219 797.515625 C 744.644531 776.679688 759.121094 753.769531 769.621094 737.21875 C 780.167969 720.621094 786.964844 710.203125 789.09375 711.125 C 791.035156 712 787.84375 724.125 779.703125 742.566406 Z M 668.695312 456.933594 C 682.25 455.875 700.75 456.660156 720.59375 460.207031 C 760.230469 467.90625 790.066406 480.261719 789.09375 484.273438 C 788.03125 488.835938 755.929688 483.488281 717.679688 476.066406 C 698.53125 472.609375 681.277344 470.210938 668.695312 468.320312 C 655.882812 466.800781 647.742188 465.046875 647.742188 462.789062 C 647.742188 460.578125 655.605469 458.273438 668.695312 456.933594 Z M 381.925781 1182.582031 C 378.273438 1191.480469 372.167969 1198.71875 366.246094 1202.636719 C 360.835938 1205.585938 356.8125 1205.910156 355.375 1204.25 C 353.851562 1202.542969 355.699219 1198.808594 358.753906 1194.0625 C 360.742188 1189.636719 363.933594 1183.828125 366.894531 1176.449219 C 369.855469 1169.121094 372.8125 1161.652344 375.914062 1156.582031 C 379.058594 1151.417969 382.019531 1148.652344 384.144531 1149.4375 C 386.273438 1150.082031 387.105469 1154.09375 386.828125 1159.855469 C 386.550781 1165.757812 385.394531 1173.683594 381.925781 1182.582031 Z M 1453.429688 1113.988281 C 1448.621094 1042.992188 1421.097656 978.546875 1425.816406 907.1875 C 1430.394531 837.714844 1416.707031 776.125 1405.1875 708.175781 C 1384.144531 584.675781 1315.875 482.84375 1188.121094 454.445312 C 1140.296875 443.84375 1070.5 432.964844 1037.242188 391.890625 C 1028.640625 381.285156 1023.042969 370.40625 1019.621094 359.203125 C 1012.40625 350.816406 1006.484375 342.792969 1002.089844 335.925781 C 994.503906 324.167969 991.035156 316.054688 992.792969 314.71875 C 994.96875 313.058594 1002.832031 320.621094 1014.625 332.46875 C 1007.457031 325.089844 1014.996094 228.882812 1015.503906 228.742188 C 1017.679688 228.144531 1021.238281 233.398438 1025.171875 242.296875 C 1026.882812 245.523438 1028.222656 249.859375 1029.566406 254.511719 C 1030.074219 254.421875 1030.535156 254.238281 1031.089844 254.238281 C 1060.371094 250.871094 1069.34375 216.113281 1075.679688 188.683594 C 1052.96875 190.113281 1030.351562 189.835938 1007.640625 187.4375 C 987.429688 231.511719 958.105469 268.757812 903.710938 262.71875 C 868.28125 258.800781 846.726562 277.332031 814.488281 285.585938 C 800.011719 289.179688 783.820312 288.027344 768.605469 284.984375 C 764.488281 350.214844 735.808594 400.09375 669.761719 424.941406 C 593.675781 453.523438 497.421875 448.453125 440.019531 513.3125 C 393.628906 565.730469 370.316406 613.210938 358.753906 682.222656 C 349.269531 738.554688 341.039062 795.027344 327.578125 850.714844 C 302.371094 955.773438 271.335938 1060.097656 274.203125 1168.246094 C 276.097656 1176.265625 278.410156 1186.683594 283.035156 1196.410156 C 287.894531 1206.832031 295.015625 1212.777344 301.90625 1215.820312 C 305.144531 1217.15625 308.152344 1218.402344 310.835938 1219.183594 C 313.195312 1220.105469 314.675781 1221.074219 314.675781 1222.226562 C 314.675781 1223.378906 313.285156 1224.441406 310.925781 1225.453125 C 308.707031 1226.605469 304.683594 1227.207031 299.316406 1226.882812 C 294.691406 1226.332031 289.050781 1224.902344 283.777344 1221.351562 C 338.402344 1319.542969 422.210938 1398.371094 522.628906 1448.898438 C 528.59375 1417.273438 536.644531 1386.25 551.027344 1356.054688 C 553.527344 1350.890625 556.070312 1345.726562 558.566406 1340.472656 C 488.125 1294.648438 429.660156 1239.144531 414.996094 1152.757812 C 414.441406 1149.527344 414.90625 1146.578125 416.0625 1143.996094 C 415.96875 1142.335938 416.0625 1140.632812 416.617188 1138.835938 C 443.953125 1042.992188 497.746094 954.160156 502.324219 852.835938 C 502.417969 852.144531 502.507812 851.589844 502.601562 850.992188 C 497.050781 839.835938 491.40625 827.574219 486.042969 814.527344 C 462.269531 756.71875 443.675781 707.53125 451.261719 703.980469 C 458.152344 700.753906 488.03125 743.074219 512.871094 803.324219 C 519.761719 819.964844 526.003906 835.730469 531.371094 849.839844 C 562.222656 898.839844 579.195312 950.335938 591.269531 1006.621094 C 601.90625 1056.085938 620.59375 1103.292969 631.046875 1152.570312 C 632.109375 1154.691406 633.175781 1156.765625 634.191406 1158.886719 C 654.726562 1199.777344 662.3125 1235.042969 658.566406 1236.5625 C 655.515625 1237.808594 648.023438 1223.289062 637.476562 1201.988281 C 633.542969 1252.421875 610.925781 1298.152344 588.863281 1343.5625 C 559.167969 1404.6875 549.363281 1463.417969 538.957031 1528.878906 C 658.058594 1548.472656 779.425781 1538.605469 899.640625 1539.066406 C 1018.464844 1539.574219 1145.476562 1552.851562 1263.5625 1535.75 C 1255.421875 1407.363281 1204.585938 1287.964844 1137.613281 1179.125 C 1136.917969 1178.386719 1136.363281 1177.511719 1135.992188 1176.449219 C 1126.464844 1204.433594 1115.964844 1223.289062 1112.589844 1222.226562 C 1108.058594 1220.796875 1115.964844 1190.328125 1125.910156 1154.183594 C 1133.496094 1126.480469 1142.097656 1103.105469 1147.789062 1093.933594 C 1163.5625 1024.183594 1189.09375 957.203125 1213.421875 889.667969 C 1212.773438 883.859375 1215.410156 879.296875 1219.574219 876.621094 C 1221.378906 871.042969 1223.179688 865.605469 1225.125 859.980469 C 1250.703125 788.25 1277.527344 732.238281 1285.113281 735.003906 C 1292.699219 737.816406 1278.039062 798.070312 1252.414062 869.800781 C 1249.546875 878.234375 1246.679688 886.441406 1243.808594 894.371094 C 1264.207031 982.234375 1269.203125 1072.820312 1292.007812 1160.222656 C 1294.042969 1162.4375 1295.199219 1165.570312 1294.6875 1169.675781 C 1289.507812 1218.492188 1263.929688 1259.015625 1232.988281 1296.03125 C 1232.710938 1296.355469 1232.386719 1296.539062 1232.109375 1296.910156 C 1246.957031 1331.023438 1259.535156 1366.101562 1269.480469 1401.828125 C 1310.691406 1370.023438 1356.898438 1343.332031 1393.347656 1306.265625 C 1417.398438 1281.925781 1432.800781 1256.25 1442.191406 1228.726562 C 1440.386719 1232.230469 1438.074219 1235.597656 1435.484375 1238.730469 C 1424.382812 1251.730469 1410.785156 1258.507812 1400.792969 1261.871094 C 1390.433594 1265.191406 1384.144531 1264.824219 1383.355469 1262.839844 C 1382.476562 1260.628906 1388.167969 1256.988281 1395.84375 1251.640625 C 1403.570312 1246.105469 1414.4375 1238.640625 1423.132812 1228.3125 C 1427.34375 1223.195312 1430.394531 1218.03125 1432.339844 1212.960938 C 1434.144531 1207.890625 1434.421875 1203.097656 1434.328125 1198.808594 C 1433.773438 1190.234375 1431.550781 1184.105469 1433.679688 1182.859375 C 1434.652344 1182.214844 1436.269531 1182.949219 1438.582031 1185.164062 C 1440.941406 1187.144531 1443.441406 1190.972656 1445.566406 1196.320312 C 1446.816406 1200.144531 1447.648438 1204.941406 1447.464844 1210.195312 C 1454.679688 1180.460938 1455.742188 1148.5625 1453.429688 1113.988281 " fill-opacity="1" fill-rule="nonzero"/><g clip-path="url(#40de6a5083)"><g clip-path="url(#382339c8d4)"><g clip-path="url(#dd3fb3ae67)"><path fill="#52c000" d="M 815.878906 1467.441406 L 845.953125 1450.996094 L 799.125 1465.21875 L 814.015625 1474.136719 L 783.941406 1490.578125 L 830.769531 1476.355469 L 815.878906 1467.441406 " fill-opacity="1" fill-rule="nonzero"/></g></g></g><g clip-path="url(#5f3221cf68)"><g clip-path="url(#d9bf911298)"><g clip-path="url(#1268da0ad9)"><path fill="#52c000" d="M 871.777344 1476.171875 L 876.515625 1442.222656 L 860.003906 1488.296875 L 876.042969 1481.660156 L 871.304688 1515.609375 L 887.816406 1469.535156 L 871.777344 1476.171875 " fill-opacity="1" fill-rule="nonzero"/></g></g></g><g clip-path="url(#c7cde37fd6)"><g clip-path="url(#d4541075b3)"><g clip-path="url(#ddf03f398a)"><path fill="#52c000" d="M 927.769531 1472.410156 L 913.964844 1441.035156 L 924.125 1488.910156 L 934.28125 1474.839844 L 948.089844 1506.210938 L 937.929688 1458.335938 L 927.769531 1472.410156 " fill-opacity="1" fill-rule="nonzero"/></g></g></g><g clip-path="url(#1d6f022f4b)"><g clip-path="url(#277ef5f654)"><g clip-path="url(#d751e86d6c)"><g clip-path="url(#347c755540)"><path stroke-linecap="butt" transform="matrix(5.224808, 4.04986, -4.04986, 5.224808, 856.214173, 1180.322766)" fill="none" stroke-linejoin="miter" d="M 15.929893 -0.000126896 C 7.131949 0.000166448 0.000159979 7.131846 -0.000375719 15.929685 C -0.0000823752 24.727628 7.132064 31.859056 15.929541 31.859124 C 24.727379 31.85966 31.859274 24.727151 31.859343 15.929675 C 31.859411 7.132198 24.727369 -0.000058232 15.929893 -0.000126896 " stroke="#52c000" stroke-width="2.278941" stroke-opacity="1" stroke-miterlimit="4"/></g></g></g></g><g clip-path="url(#6d763a5436)"><g clip-path="url(#4b4390332d)"><path fill="#ffffff" d="M 912.917969 1276.1875 C 885.625 1255.03125 846.347656 1260.007812 825.195312 1287.300781 C 804.039062 1314.59375 809.015625 1353.867188 836.308594 1375.023438 C 863.597656 1396.175781 902.875 1391.203125 924.027344 1363.910156 C 945.183594 1336.617188 940.207031 1297.339844 912.917969 1276.1875 " fill-opacity="1" fill-rule="nonzero"/></g></g><g clip-path="url(#7040f6e19e)"><g clip-path="url(#b04008b336)"><g clip-path="url(#083e0c9964)"><g clip-path="url(#298e3af1f7)"><path stroke-linecap="butt" transform="matrix(5.097056, 3.950837, -3.950837, 5.097056, 863.498674, 1237.881967)" fill="none" stroke-linejoin="miter" d="M 9.695616 -0.0000510702 C 4.340878 -0.000159825 -0.0000983989 4.340984 0.000271586 9.695351 C 0.000162831 15.050089 4.340935 19.390586 9.695673 19.390695 C 15.049562 19.390696 19.390909 15.050031 19.390539 9.695664 C 19.390648 4.340926 15.049504 -0.0000499734 9.695616 -0.0000510702 " stroke="#52c000" stroke-width="2.278941" stroke-opacity="1" stroke-miterlimit="4"/></g></g></g></g><g clip-path="url(#b1f183fce4)"><g clip-path="url(#86718391e0)"><g clip-path="url(#e0fdae5e6a)"><path fill="#52c000" d="M 991.386719 1403.25 L 983.476562 1397.121094 C 1024.972656 1343.589844 1016.566406 1277.210938 963.03125 1235.710938 L 969.160156 1227.804688 C 1026.429688 1272.195312 1035.777344 1345.980469 991.386719 1403.25 Z M 991.386719 1403.25 " fill-opacity="1" fill-rule="nonzero"/></g></g></g><g clip-path="url(#2a2c980c62)"><g clip-path="url(#eb78d43319)"><g clip-path="url(#95e9621066)"><path fill="#52c000" d="M 758.480469 1251.757812 L 766.386719 1257.886719 C 724.894531 1311.421875 733.296875 1377.800781 786.835938 1419.296875 L 780.707031 1427.203125 C 723.4375 1382.8125 714.089844 1309.027344 758.480469 1251.757812 Z M 758.480469 1251.757812 " fill-opacity="1" fill-rule="nonzero"/></g></g></g></svg>