<svg xmlns="http://www.w3.org/2000/svg" xmlns:xlink="http://www.w3.org/1999/xlink" width="2300" zoomAndPan="magnify" viewBox="0 0 1724.88 1724.999932" height="2300" preserveAspectRatio="xMidYMid meet" version="1.0"><defs><clipPath id="ba2118f428"><path d="M 12.574219 12.632812 L 1711.957031 12.632812 L 1711.957031 1712.015625 L 12.574219 1712.015625 Z M 12.574219 12.632812 " clip-rule="nonzero"/></clipPath><clipPath id="740c3038ab"><path d="M 289 489 L 1275 489 L 1275 1576.945312 L 289 1576.945312 Z M 289 489 " clip-rule="nonzero"/></clipPath><clipPath id="e9ec141abf"><path d="M 494 208 L 635 208 L 635 496 L 494 496 Z M 494 208 " clip-rule="nonzero"/></clipPath><clipPath id="a2547bd76b"><path d="M 408.882812 315.332031 L 494.550781 208.113281 L 720.125 388.339844 L 634.457031 495.5625 Z M 408.882812 315.332031 " clip-rule="nonzero"/></clipPath><clipPath id="3927e1dbea"><path d="M 408.882812 315.332031 L 494.550781 208.113281 L 720.125 388.339844 L 634.457031 495.5625 Z M 408.882812 315.332031 " clip-rule="nonzero"/></clipPath><clipPath id="be97b1e346"><path d="M 709 138 L 826 138 L 826 458 L 709 458 Z M 709 138 " clip-rule="nonzero"/></clipPath><clipPath id="5d9355243f"><path d="M 649.007812 190.847656 L 775.820312 138.378906 L 886.207031 405.175781 L 759.394531 457.644531 Z M 649.007812 190.847656 " clip-rule="nonzero"/></clipPath><clipPath id="848bddb7f6"><path d="M 649.007812 190.847656 L 775.820312 138.378906 L 886.207031 405.175781 L 759.394531 457.644531 Z M 649.007812 190.847656 " clip-rule="nonzero"/></clipPath><clipPath id="76cb2f32b5"><path d="M 886 172 L 1068 172 L 1068 436 L 886 436 Z M 886 172 " clip-rule="nonzero"/></clipPath><clipPath id="c1a37d7add"><path d="M 932.117188 150.8125 L 1067.632812 172.519531 L 1021.96875 457.613281 L 886.457031 435.910156 Z M 932.117188 150.8125 " clip-rule="nonzero"/></clipPath><clipPath id="15af2c8e0c"><path d="M 932.117188 150.8125 L 1067.632812 172.519531 L 1021.96875 457.613281 L 886.457031 435.910156 Z M 932.117188 150.8125 " clip-rule="nonzero"/></clipPath><clipPath id="0f40816cd8"><path d="M 691.292969 690.070312 L 973.273438 690.070312 L 973.273438 972.050781 L 691.292969 972.050781 Z M 691.292969 690.070312 " clip-rule="nonzero"/></clipPath><clipPath id="c9ff46ae81"><path d="M 832.28125 690.070312 C 754.414062 690.070312 691.292969 753.195312 691.292969 831.058594 C 691.292969 908.925781 754.414062 972.050781 832.28125 972.050781 C 910.148438 972.050781 973.273438 908.925781 973.273438 831.058594 C 973.273438 753.195312 910.148438 690.070312 832.28125 690.070312 " clip-rule="nonzero"/></clipPath><clipPath id="df32d6a5e1"><path d="M 746.496094 745.273438 L 918.234375 745.273438 L 918.234375 917.011719 L 746.496094 917.011719 Z M 746.496094 745.273438 " clip-rule="nonzero"/></clipPath><clipPath id="8e4e4482b9"><path d="M 832.363281 745.273438 C 784.941406 745.273438 746.496094 783.71875 746.496094 831.144531 C 746.496094 878.566406 784.941406 917.011719 832.363281 917.011719 C 879.789062 917.011719 918.234375 878.566406 918.234375 831.144531 C 918.234375 783.71875 879.789062 745.273438 832.363281 745.273438 " clip-rule="nonzero"/></clipPath><clipPath id="0ad392226d"><path d="M 850.5625 647.460938 L 1016.300781 647.460938 L 1016.300781 813.199219 L 850.5625 813.199219 Z M 850.5625 647.460938 " clip-rule="nonzero"/></clipPath><clipPath id="3bcfdee9d7"><path d="M 648.769531 849.152344 L 814.511719 849.152344 L 814.511719 1014.890625 L 648.769531 1014.890625 Z M 648.769531 849.152344 " clip-rule="nonzero"/></clipPath></defs><g clip-path="url(#ba2118f428)"><path fill="#52c000" d="M 862.265625 12.632812 C 392.992188 12.632812 12.574219 393.054688 12.574219 862.324219 C 12.574219 1331.59375 392.992188 1712.015625 862.265625 1712.015625 C 1331.535156 1712.015625 1711.957031 1331.59375 1711.957031 862.324219 C 1711.957031 393.054688 1331.535156 12.632812 862.265625 12.632812 " fill-opacity="1" fill-rule="nonzero"/></g><g clip-path="url(#740c3038ab)"><path fill="#ffffff" d="M 637.539062 1576.761719 L 1168.726562 1576.761719 C 1146.410156 1471.902344 1119.699219 1299.402344 1131.195312 1257.117188 C 1150.132812 1185.410156 1211.328125 1131.285156 1234.324219 1073.785156 C 1351.316406 781.539062 1208.367188 527.113281 885.046875 493.359375 C 599.558594 463.546875 440.761719 625.609375 418.4375 793.042969 C 416.074219 810.96875 418.4375 828.894531 426.894531 847.5 C 387.671875 908.722656 297.390625 999.039062 289.617188 1042.332031 C 284.878906 1068.378906 315.652344 1077.507812 330.53125 1086.644531 C 344.730469 1091.378906 360.285156 1087.996094 369.75 1099.496094 C 376.511719 1107.953125 367.382812 1122.160156 365.351562 1132.644531 C 365.015625 1149.894531 344.730469 1158.351562 346.757812 1174.25 C 348.789062 1187.777344 360.285156 1193.191406 370.765625 1201.648438 C 381.925781 1210.441406 342.363281 1227.351562 355.210938 1242.914062 C 368.394531 1258.132812 387.671875 1275.722656 380.90625 1297.371094 C 371.101562 1330.855469 352.164062 1365.695312 367.71875 1391.738281 C 383.277344 1417.445312 404.914062 1432.667969 438.386719 1439.429688 C 490.792969 1439.429688 543.539062 1440.453125 596.289062 1440.453125 C 614.542969 1456.347656 627.390625 1507.761719 637.539062 1576.765625 L 637.535156 1576.765625 Z M 637.539062 1576.761719 " fill-opacity="1" fill-rule="nonzero"/></g><g clip-path="url(#e9ec141abf)"><g clip-path="url(#a2547bd76b)"><g clip-path="url(#3927e1dbea)"><path fill="#ffffff" d="M 550.636719 345.644531 L 494.488281 208.1875 L 533.246094 414.515625 L 578.402344 357.996094 L 634.550781 495.457031 L 595.792969 289.128906 L 550.636719 345.644531 " fill-opacity="1" fill-rule="nonzero"/></g></g></g><g clip-path="url(#be97b1e346)"><g clip-path="url(#5d9355243f)"><g clip-path="url(#848bddb7f6)"><path fill="#ffffff" d="M 758.460938 285.886719 L 775.726562 138.414062 L 709.953125 337.777344 L 776.800781 310.121094 L 759.527344 457.597656 L 825.304688 258.230469 L 758.460938 285.886719 " fill-opacity="1" fill-rule="nonzero"/></g></g></g><g clip-path="url(#76cb2f32b5)"><g clip-path="url(#c1a37d7add)"><g clip-path="url(#15af2c8e0c)"><path fill="#ffffff" d="M 975.601562 289.09375 L 1067.535156 172.496094 L 907.101562 307.902344 L 978.535156 319.34375 L 886.597656 435.941406 L 1047.03125 300.535156 L 975.601562 289.09375 " fill-opacity="1" fill-rule="nonzero"/></g></g></g><g clip-path="url(#0f40816cd8)"><g clip-path="url(#c9ff46ae81)"><path stroke-linecap="butt" transform="matrix(0.749449, 0, 0, 0.749449, 691.292206, 690.070301)" fill="none" stroke-linejoin="miter" d="M 188.123488 0.0000154257 C 84.224302 0.0000154257 0.00101781 84.228512 0.00101781 188.122486 C 0.00101781 292.021672 84.224302 376.250169 188.123488 376.250169 C 292.022675 376.250169 376.251171 292.021672 376.251171 188.122486 C 376.251171 84.228512 292.022675 0.0000154257 188.123488 0.0000154257 " stroke="#52c000" stroke-width="30" stroke-opacity="1" stroke-miterlimit="4"/></g></g><g clip-path="url(#df32d6a5e1)"><g clip-path="url(#8e4e4482b9)"><path stroke-linecap="butt" transform="matrix(0.749845, 0, 0, 0.749845, 746.495923, 745.273946)" fill="none" stroke-linejoin="miter" d="M 114.513409 -0.000678297 C 51.27121 -0.000678297 0.00022754 51.270304 0.00022754 114.517713 C 0.00022754 177.759912 51.27121 229.030895 114.513409 229.030895 C 177.760818 229.030895 229.031801 177.759912 229.031801 114.517713 C 229.031801 51.270304 177.760818 -0.000678297 114.513409 -0.000678297 " stroke="#52c000" stroke-width="30" stroke-opacity="1" stroke-miterlimit="4"/></g></g><g clip-path="url(#0ad392226d)"><path fill="#52c000" d="M 1016.300781 813.199219 L 1003.039062 813.199219 C 1003.039062 723.429688 940.339844 660.71875 850.5625 660.71875 L 850.5625 647.460938 C 946.597656 647.460938 1016.300781 717.164062 1016.300781 813.199219 Z M 1016.300781 813.199219 " fill-opacity="1" fill-rule="nonzero"/></g><g clip-path="url(#3bcfdee9d7)"><path fill="#52c000" d="M 648.769531 849.152344 L 662.03125 849.152344 C 662.03125 938.925781 724.734375 1001.632812 814.511719 1001.632812 L 814.511719 1014.890625 C 718.472656 1014.890625 648.769531 945.1875 648.769531 849.152344 Z M 648.769531 849.152344 " fill-opacity="1" fill-rule="nonzero"/></g></svg>