<svg xmlns="http://www.w3.org/2000/svg" xmlns:xlink="http://www.w3.org/1999/xlink" width="2300" zoomAndPan="magnify" viewBox="0 0 1724.88 1724.999932" height="2300" preserveAspectRatio="xMidYMid meet" version="1.0"><defs><clipPath id="9e72a76f8e"><path d="M 15.90625 15.964844 L 1708.941406 15.964844 L 1708.941406 1709.003906 L 15.90625 1709.003906 Z M 15.90625 15.964844 " clip-rule="nonzero"/></clipPath><clipPath id="f772954c85"><path d="M 786 806 L 848 806 L 848 847 L 786 847 Z M 786 806 " clip-rule="nonzero"/></clipPath><clipPath id="29809fbb92"><path d="M 820.429688 790.695312 L 847.0625 806.644531 L 813.53125 862.640625 L 786.898438 846.695312 Z M 820.429688 790.695312 " clip-rule="nonzero"/></clipPath><clipPath id="707bb4791b"><path d="M 820.429688 790.695312 L 847.0625 806.644531 L 813.53125 862.640625 L 786.898438 846.695312 Z M 820.429688 790.695312 " clip-rule="nonzero"/></clipPath><clipPath id="4d30589b03"><path d="M 862 799 L 889 799 L 889 872 L 862 872 Z M 862 799 " clip-rule="nonzero"/></clipPath><clipPath id="0af67aeede"><path d="M 848.90625 811.511719 L 877.589844 799.640625 L 902.542969 859.953125 L 873.859375 871.820312 Z M 848.90625 811.511719 " clip-rule="nonzero"/></clipPath><clipPath id="14e18eda8c"><path d="M 848.90625 811.511719 L 877.589844 799.640625 L 902.542969 859.953125 L 873.859375 871.820312 Z M 848.90625 811.511719 " clip-rule="nonzero"/></clipPath><clipPath id="9b206b824e"><path d="M 915 799 L 951 799 L 951 863 L 915 863 Z M 915 799 " clip-rule="nonzero"/></clipPath><clipPath id="2f83944415"><path d="M 897.707031 824.5 L 915.875 799.332031 L 968.796875 837.535156 L 950.625 862.703125 Z M 897.707031 824.5 " clip-rule="nonzero"/></clipPath><clipPath id="5c5a620d85"><path d="M 897.707031 824.5 L 915.875 799.332031 L 968.796875 837.535156 L 950.625 862.703125 Z M 897.707031 824.5 " clip-rule="nonzero"/></clipPath><clipPath id="6311c0b38a"><path d="M 773 1506 L 850 1506 L 850 1558 L 773 1558 Z M 773 1506 " clip-rule="nonzero"/></clipPath><clipPath id="4b921937c0"><path d="M 815.957031 1486.832031 L 849.417969 1506.871094 L 806.894531 1577.890625 L 773.429688 1557.855469 Z M 815.957031 1486.832031 " clip-rule="nonzero"/></clipPath><clipPath id="2a1e600692"><path d="M 815.957031 1486.832031 L 849.417969 1506.871094 L 806.894531 1577.890625 L 773.429688 1557.855469 Z M 815.957031 1486.832031 " clip-rule="nonzero"/></clipPath><clipPath id="8ba49cb876"><path d="M 869 1498 L 903 1498 L 903 1590 L 869 1590 Z M 869 1498 " clip-rule="nonzero"/></clipPath><clipPath id="38abe6e93c"><path d="M 851.855469 1513.074219 L 887.894531 1498.164062 L 919.542969 1574.65625 L 883.503906 1589.566406 Z M 851.855469 1513.074219 " clip-rule="nonzero"/></clipPath><clipPath id="5cdbd056b0"><path d="M 851.855469 1513.074219 L 887.894531 1498.164062 L 919.542969 1574.65625 L 883.503906 1589.566406 Z M 851.855469 1513.074219 " clip-rule="nonzero"/></clipPath><clipPath id="213dba274d"><path d="M 936 1497 L 981 1497 L 981 1578 L 936 1578 Z M 936 1497 " clip-rule="nonzero"/></clipPath><clipPath id="45587348b6"><path d="M 913.375 1529.453125 L 936.203125 1497.828125 L 1003.324219 1546.28125 L 980.492188 1577.90625 Z M 913.375 1529.453125 " clip-rule="nonzero"/></clipPath><clipPath id="bd36a77af6"><path d="M 913.375 1529.453125 L 936.203125 1497.828125 L 1003.324219 1546.28125 L 980.492188 1577.90625 Z M 913.375 1529.453125 " clip-rule="nonzero"/></clipPath><clipPath id="0120ea478d"><path d="M 772 1285 L 984 1285 L 984 1496 L 772 1496 Z M 772 1285 " clip-rule="nonzero"/></clipPath><clipPath id="798c1b8f93"><path d="M 862.367188 1242.128906 L 1026.152344 1375.046875 L 893.234375 1538.832031 L 729.449219 1405.914062 Z M 862.367188 1242.128906 " clip-rule="nonzero"/></clipPath><clipPath id="d54c1b06bc"><path d="M 862.367188 1242.128906 L 1026.152344 1375.046875 L 893.234375 1538.832031 L 729.449219 1405.914062 Z M 862.367188 1242.128906 " clip-rule="nonzero"/></clipPath><clipPath id="e3b2346c72"><path d="M 944.257812 1308.585938 C 899.03125 1271.882812 832.613281 1278.792969 795.90625 1324.019531 C 759.203125 1369.25 766.113281 1435.667969 811.339844 1472.371094 C 856.566406 1509.078125 922.988281 1502.167969 959.691406 1456.9375 C 996.394531 1411.710938 989.488281 1345.292969 944.257812 1308.585938 " clip-rule="nonzero"/></clipPath><clipPath id="c4c522c080"><path d="M 813 1326 L 942 1326 L 942 1455 L 813 1455 Z M 813 1326 " clip-rule="nonzero"/></clipPath><clipPath id="b183e84e26"><path d="M 868.398438 1300.089844 L 967.90625 1380.84375 L 887.152344 1480.351562 L 787.644531 1399.597656 Z M 868.398438 1300.089844 " clip-rule="nonzero"/></clipPath><clipPath id="d90707ca25"><path d="M 813 1326 L 942 1326 L 942 1455 L 813 1455 Z M 813 1326 " clip-rule="nonzero"/></clipPath><clipPath id="91c57486ce"><path d="M 868.398438 1300.089844 L 967.90625 1380.84375 L 887.152344 1480.351562 L 787.644531 1399.597656 Z M 868.398438 1300.089844 " clip-rule="nonzero"/></clipPath><clipPath id="adfa016670"><path d="M 868.398438 1300.089844 L 967.90625 1380.84375 L 887.152344 1480.351562 L 787.644531 1399.597656 Z M 868.398438 1300.089844 " clip-rule="nonzero"/></clipPath><clipPath id="13a7e69557"><path d="M 918.152344 1340.46875 C 890.675781 1318.167969 850.320312 1322.367188 828.023438 1349.84375 C 805.722656 1377.320312 809.921875 1417.675781 837.398438 1439.972656 C 864.875 1462.273438 905.230469 1458.074219 927.527344 1430.597656 C 949.828125 1403.121094 945.628906 1362.765625 918.152344 1340.46875 " clip-rule="nonzero"/></clipPath><clipPath id="1ccb8d82e1"><path d="M 968 1292 L 1023 1292 L 1023 1466 L 968 1466 Z M 968 1292 " clip-rule="nonzero"/></clipPath><clipPath id="c138bb201c"><path d="M 974.722656 1292.347656 L 1070.519531 1370.09375 L 992.773438 1465.890625 L 896.976562 1388.148438 Z M 974.722656 1292.347656 " clip-rule="nonzero"/></clipPath><clipPath id="152b8a3154"><path d="M 974.722656 1292.347656 L 1070.519531 1370.09375 L 992.773438 1465.890625 L 896.976562 1388.148438 Z M 974.722656 1292.347656 " clip-rule="nonzero"/></clipPath><clipPath id="1cc76c1ffa"><path d="M 733 1314 L 788 1314 L 788 1489 L 733 1489 Z M 733 1314 " clip-rule="nonzero"/></clipPath><clipPath id="e166c9fc6f"><path d="M 780.992188 1488.351562 L 685.195312 1410.605469 L 762.941406 1314.808594 L 858.738281 1392.550781 Z M 780.992188 1488.351562 " clip-rule="nonzero"/></clipPath><clipPath id="b60ac47ece"><path d="M 780.992188 1488.351562 L 685.195312 1410.605469 L 762.941406 1314.808594 L 858.738281 1392.550781 Z M 780.992188 1488.351562 " clip-rule="nonzero"/></clipPath><clipPath id="5018ff13f3"><path d="M 772 573 L 984 573 L 984 785 L 772 785 Z M 772 573 " clip-rule="nonzero"/></clipPath><clipPath id="0724477662"><path d="M 870.117188 529.679688 L 1026.742188 670.960938 L 885.460938 827.589844 L 728.832031 686.304688 Z M 870.117188 529.679688 " clip-rule="nonzero"/></clipPath><clipPath id="408fef8dd2"><path d="M 870.117188 529.679688 L 1026.742188 670.960938 L 885.460938 827.589844 L 728.832031 686.304688 Z M 870.117188 529.679688 " clip-rule="nonzero"/></clipPath><clipPath id="b28d92e70e"><path d="M 948.429688 600.320312 C 905.179688 561.304688 838.488281 564.742188 799.476562 607.992188 C 760.460938 651.246094 763.894531 717.933594 807.148438 756.949219 C 850.398438 795.960938 917.089844 792.527344 956.101562 749.273438 C 995.117188 706.023438 991.679688 639.335938 948.429688 600.320312 " clip-rule="nonzero"/></clipPath><clipPath id="917eaa4008"><path d="M 813 614 L 942 614 L 942 743 L 813 743 Z M 813 614 " clip-rule="nonzero"/></clipPath><clipPath id="8e4e1570f7"><path d="M 873.117188 587.875 L 968.273438 673.710938 L 882.441406 768.871094 L 787.28125 683.035156 Z M 873.117188 587.875 " clip-rule="nonzero"/></clipPath><clipPath id="e7b8ed1c23"><path d="M 813 614 L 942 614 L 942 743 L 813 743 Z M 813 614 " clip-rule="nonzero"/></clipPath><clipPath id="d720f9a410"><path d="M 873.117188 587.875 L 968.273438 673.710938 L 882.441406 768.871094 L 787.28125 683.035156 Z M 873.117188 587.875 " clip-rule="nonzero"/></clipPath><clipPath id="be2304ca75"><path d="M 873.117188 587.875 L 968.273438 673.710938 L 882.441406 768.871094 L 787.28125 683.035156 Z M 873.117188 587.875 " clip-rule="nonzero"/></clipPath><clipPath id="416fe8522d"><path d="M 920.695312 630.792969 C 894.417969 607.089844 853.902344 609.179688 830.199219 635.457031 C 806.496094 661.734375 808.582031 702.25 834.859375 725.953125 C 861.136719 749.65625 901.65625 747.570312 925.359375 721.292969 C 949.058594 695.015625 946.972656 654.496094 920.695312 630.792969 " clip-rule="nonzero"/></clipPath><clipPath id="ad093850ce"><path d="M 973 585 L 1023 585 L 1023 760 L 973 760 Z M 973 585 " clip-rule="nonzero"/></clipPath><clipPath id="b86b8c2cff"><path d="M 979.699219 585.691406 L 1071.308594 668.328125 L 988.671875 759.941406 L 897.0625 677.304688 Z M 979.699219 585.691406 " clip-rule="nonzero"/></clipPath><clipPath id="7025fa7e38"><path d="M 979.699219 585.691406 L 1071.308594 668.328125 L 988.671875 759.941406 L 897.0625 677.304688 Z M 979.699219 585.691406 " clip-rule="nonzero"/></clipPath><clipPath id="a0653587a8"><path d="M 733 597 L 783 597 L 783 772 L 733 772 Z M 733 597 " clip-rule="nonzero"/></clipPath><clipPath id="390acb0083"><path d="M 776.007812 771.320312 L 684.394531 688.683594 L 767.03125 597.074219 L 858.644531 679.710938 Z M 776.007812 771.320312 " clip-rule="nonzero"/></clipPath><clipPath id="d3cbaca304"><path d="M 776.007812 771.320312 L 684.394531 688.683594 L 767.03125 597.074219 L 858.644531 679.710938 Z M 776.007812 771.320312 " clip-rule="nonzero"/></clipPath></defs><g clip-path="url(#9e72a76f8e)"><path fill="#52c000" d="M 862.425781 15.964844 C 394.90625 15.964844 15.90625 394.964844 15.90625 862.484375 C 15.90625 1330.003906 394.90625 1709.003906 862.425781 1709.003906 C 1329.941406 1709.003906 1708.941406 1330.003906 1708.941406 862.484375 C 1708.941406 394.964844 1329.941406 15.964844 862.425781 15.964844 " fill-opacity="1" fill-rule="nonzero"/></g><path fill="#ffffff" d="M 758.691406 308.964844 C 759.386719 309.242188 759.941406 309.519531 760.546875 309.84375 C 791.472656 317.730469 816.835938 311.5625 844.332031 295.238281 C 852.585938 290.417969 866.125 287.171875 875.722656 287.726562 C 902.523438 289.070312 934.238281 298.761719 955.707031 272.839844 C 964.054688 262.824219 970.265625 252.253906 975.875 241.125 C 879.988281 240.84375 783.960938 239.40625 688.257812 246.316406 C 701.148438 276.875 726.511719 298.484375 758.691406 308.964844 " fill-opacity="1" fill-rule="nonzero"/><path fill="#ffffff" d="M 1082.894531 917.304688 C 1064.71875 907.058594 1039.261719 892.125 1015.660156 868.894531 C 1004.023438 857.164062 994.515625 844.085938 987.792969 831.242188 C 980.839844 818.351562 977.59375 805.460938 975.691406 794.886719 C 974.207031 784.035156 973.835938 775.316406 974.808594 769.335938 C 975.460938 763.402344 976.339844 760.109375 977.5 760.109375 C 980.1875 760.109375 981.253906 773.09375 986.820312 792.289062 C 989.972656 801.703125 993.914062 812.878906 1000.824219 824.007812 C 1007.59375 835.183594 1016.402344 846.589844 1027.160156 857.441406 C 1049 878.863281 1072.597656 895.046875 1089.152344 907.707031 C 1105.753906 920.226562 1115.675781 928.757812 1114.421875 930.660156 C 1113.171875 932.515625 1101.253906 927.414062 1082.894531 917.304688 Z M 927.050781 536.691406 C 926.078125 534.882812 930.714844 528.902344 940.960938 522.085938 C 952.230469 515.175781 969.0625 509.703125 987.886719 507.894531 C 1006.617188 506.320312 1023.3125 507.570312 1035.132812 509.101562 C 1047.050781 510.769531 1054.375 512.859375 1054.375 515.082031 C 1054.375 517.308594 1046.957031 519.304688 1035.042969 520.648438 C 1023.125 521.992188 1006.804688 522.597656 989.417969 524.035156 C 972.027344 525.75 956.820312 528.996094 946.433594 532.195312 C 935.582031 536.042969 928.210938 538.824219 927.050781 536.691406 Z M 884.671875 1037.730469 C 882.074219 1144.476562 876.324219 1230.960938 871.78125 1230.960938 C 867.285156 1230.867188 865.847656 1144.199219 868.535156 1037.453125 C 871.132812 930.660156 876.882812 844.179688 881.425781 844.179688 C 885.921875 844.179688 887.359375 930.894531 884.671875 1037.730469 Z M 876.605469 1456.785156 C 872.105469 1456.785156 868.535156 1426.136719 868.535156 1388.34375 C 868.535156 1350.503906 872.105469 1319.851562 876.605469 1319.851562 C 881.101562 1319.851562 884.671875 1350.503906 884.671875 1388.34375 C 884.671875 1426.136719 881.101562 1456.785156 876.605469 1456.785156 Z M 778.304688 801.332031 C 770.050781 819.789062 756.511719 845.152344 734.210938 868.015625 C 711.8125 890.875 684.640625 903.765625 664.75 908.867188 C 644.347656 914.058594 632.15625 913.273438 631.597656 911.464844 C 630.902344 909.050781 643.515625 905.480469 661.085938 898.109375 C 678.847656 890.503906 702.214844 877.425781 722.664062 856.605469 C 743.15625 835.648438 757.671875 812.601562 768.195312 795.953125 C 778.769531 779.257812 785.585938 768.78125 787.71875 769.707031 C 789.664062 770.589844 786.464844 782.785156 778.304688 801.332031 Z M 667.023438 514.015625 C 680.609375 512.949219 699.15625 513.738281 719.046875 517.308594 C 758.785156 525.054688 788.691406 537.480469 787.71875 541.515625 C 786.652344 546.105469 754.472656 540.726562 716.125 533.261719 C 696.929688 529.785156 679.632812 527.371094 667.023438 525.472656 C 654.179688 523.941406 646.019531 522.179688 646.019531 519.90625 C 646.019531 517.679688 653.902344 515.363281 667.023438 514.015625 Z M 379.542969 1243.945312 C 375.882812 1252.894531 369.761719 1260.171875 363.824219 1264.113281 C 358.402344 1267.082031 354.367188 1267.40625 352.929688 1265.738281 C 351.398438 1264.023438 353.253906 1260.265625 356.3125 1255.488281 C 358.308594 1251.039062 361.507812 1245.195312 364.476562 1237.777344 C 367.441406 1230.402344 370.410156 1222.890625 373.515625 1217.789062 C 376.667969 1212.597656 379.636719 1209.816406 381.769531 1210.601562 C 383.902344 1211.253906 384.738281 1215.285156 384.460938 1221.082031 C 384.179688 1227.019531 383.023438 1234.992188 379.542969 1243.945312 Z M 1453.695312 1174.945312 C 1448.871094 1103.53125 1421.28125 1038.707031 1426.011719 966.921875 C 1430.601562 897.042969 1416.878906 835.089844 1405.332031 766.738281 C 1384.234375 642.511719 1315.796875 540.078125 1187.730469 511.511719 C 1139.785156 500.847656 1069.816406 489.902344 1036.480469 448.585938 C 1027.855469 437.921875 1022.246094 426.980469 1018.8125 415.710938 C 1011.578125 407.269531 1005.644531 399.203125 1001.238281 392.292969 C 993.636719 380.46875 990.15625 372.308594 991.917969 370.960938 C 994.097656 369.292969 1001.980469 376.898438 1013.804688 388.816406 C 1006.617188 381.394531 1014.175781 284.621094 1014.6875 284.480469 C 1016.867188 283.878906 1020.4375 289.164062 1024.378906 298.113281 C 1026.09375 301.359375 1027.4375 305.71875 1028.78125 310.402344 C 1029.292969 310.308594 1029.753906 310.125 1030.3125 310.125 C 1059.664062 306.738281 1068.65625 271.773438 1075.011719 244.183594 C 1052.242188 245.621094 1029.570312 245.34375 1006.804688 242.933594 C 986.542969 287.261719 957.144531 324.730469 902.617188 318.65625 C 867.097656 314.714844 845.492188 333.355469 813.171875 341.65625 C 798.660156 345.273438 782.429688 344.113281 767.175781 341.054688 C 763.050781 406.667969 734.300781 456.839844 668.089844 481.835938 C 591.816406 510.585938 495.324219 505.484375 437.78125 570.730469 C 391.273438 623.453125 367.90625 671.214844 356.3125 740.632812 C 346.808594 797.296875 338.554688 854.101562 325.0625 910.117188 C 299.792969 1015.796875 268.679688 1120.734375 271.554688 1229.523438 C 273.457031 1237.589844 275.773438 1248.070312 280.410156 1257.855469 C 285.277344 1268.335938 292.417969 1274.316406 299.328125 1277.378906 C 302.574219 1278.722656 305.589844 1279.972656 308.277344 1280.761719 C 310.640625 1281.691406 312.125 1282.664062 312.125 1283.824219 C 312.125 1284.980469 310.734375 1286.046875 308.371094 1287.070312 C 306.144531 1288.226562 302.109375 1288.832031 296.730469 1288.507812 C 292.09375 1287.949219 286.4375 1286.511719 281.152344 1282.941406 C 335.914062 1381.710938 419.929688 1461.007812 520.59375 1511.828125 C 526.574219 1480.019531 534.644531 1448.8125 549.0625 1418.4375 C 551.566406 1413.246094 554.117188 1408.050781 556.621094 1402.765625 C 486.003906 1356.671875 427.394531 1300.839844 412.695312 1213.941406 C 412.140625 1210.695312 412.605469 1207.726562 413.761719 1205.132812 C 413.671875 1203.460938 413.761719 1201.746094 414.320312 1199.9375 C 441.722656 1103.53125 495.648438 1014.175781 500.238281 912.25 C 500.332031 911.554688 500.425781 911 500.515625 910.398438 C 494.953125 899.175781 489.296875 886.839844 483.917969 873.71875 C 460.085938 815.566406 441.445312 766.089844 449.050781 762.519531 C 455.957031 759.273438 485.910156 801.84375 510.808594 862.449219 C 517.71875 879.1875 523.980469 895.046875 529.359375 909.238281 C 560.285156 958.53125 577.300781 1010.328125 589.402344 1066.945312 C 600.066406 1116.703125 618.800781 1164.183594 629.28125 1213.757812 C 630.347656 1215.890625 631.414062 1217.976562 632.433594 1220.109375 C 653.019531 1261.238281 660.625 1296.714844 656.867188 1298.242188 C 653.808594 1299.496094 646.296875 1284.890625 635.726562 1263.464844 C 631.785156 1314.195312 609.109375 1360.195312 586.992188 1405.871094 C 557.222656 1467.359375 547.394531 1526.4375 536.960938 1592.28125 C 656.359375 1611.992188 778.027344 1602.066406 898.535156 1602.53125 C 1017.652344 1603.039062 1144.980469 1616.394531 1263.355469 1599.191406 C 1255.195312 1470.046875 1204.238281 1349.949219 1137.097656 1240.464844 C 1136.402344 1239.722656 1135.84375 1238.84375 1135.472656 1237.777344 C 1125.921875 1265.921875 1115.398438 1284.890625 1112.011719 1283.824219 C 1107.46875 1282.386719 1115.398438 1251.734375 1125.367188 1215.378906 C 1132.96875 1187.511719 1141.59375 1164 1147.296875 1154.773438 C 1163.109375 1084.613281 1188.703125 1017.234375 1213.09375 949.300781 C 1212.445312 943.460938 1215.085938 938.867188 1219.261719 936.179688 C 1221.066406 930.566406 1222.875 925.097656 1224.824219 919.4375 C 1250.464844 847.285156 1277.359375 790.945312 1284.960938 793.726562 C 1292.566406 796.554688 1277.867188 857.164062 1252.179688 929.316406 C 1249.304688 937.800781 1246.429688 946.054688 1243.554688 954.03125 C 1264.003906 1042.414062 1269.011719 1133.535156 1291.871094 1221.453125 C 1293.910156 1223.679688 1295.070312 1226.832031 1294.5625 1230.960938 C 1289.367188 1280.066406 1263.726562 1320.828125 1232.707031 1358.0625 C 1232.429688 1358.386719 1232.105469 1358.574219 1231.824219 1358.945312 C 1246.710938 1393.257812 1259.320312 1428.546875 1269.289062 1464.484375 C 1310.605469 1432.488281 1356.925781 1405.640625 1393.460938 1368.355469 C 1417.574219 1343.875 1433.015625 1318.042969 1442.425781 1290.359375 C 1440.617188 1293.886719 1438.300781 1297.269531 1435.703125 1300.421875 C 1424.574219 1313.5 1410.941406 1320.316406 1400.929688 1323.703125 C 1390.542969 1327.039062 1384.234375 1326.667969 1383.445312 1324.675781 C 1382.566406 1322.449219 1388.269531 1318.785156 1395.964844 1313.40625 C 1403.710938 1307.84375 1414.605469 1300.332031 1423.324219 1289.945312 C 1427.542969 1284.796875 1430.601562 1279.601562 1432.550781 1274.503906 C 1434.359375 1269.402344 1434.636719 1264.578125 1434.542969 1260.265625 C 1433.988281 1251.640625 1431.761719 1245.472656 1433.894531 1244.222656 C 1434.867188 1243.574219 1436.492188 1244.316406 1438.808594 1246.539062 C 1441.175781 1248.535156 1443.679688 1252.382812 1445.8125 1257.761719 C 1447.0625 1261.609375 1447.898438 1266.433594 1447.710938 1271.71875 C 1454.945312 1241.8125 1456.011719 1209.722656 1453.695312 1174.945312 " fill-opacity="1" fill-rule="nonzero"/><g clip-path="url(#f772954c85)"><g clip-path="url(#29809fbb92)"><g clip-path="url(#707bb4791b)"><path fill="#52c000" d="M 817.945312 823.375 L 847.046875 806.632812 L 801.980469 821.5625 L 816.023438 829.96875 L 786.921875 846.710938 L 831.988281 831.78125 L 817.945312 823.375 " fill-opacity="1" fill-rule="nonzero"/></g></g></g><g clip-path="url(#4d30589b03)"><g clip-path="url(#0af67aeede)"><g clip-path="url(#14e18eda8c)"><path fill="#52c000" d="M 873.65625 832.992188 L 877.570312 799.648438 L 862.679688 844.726562 L 877.804688 838.46875 L 873.886719 871.8125 L 888.777344 826.734375 L 873.65625 832.992188 " fill-opacity="1" fill-rule="nonzero"/></g></g></g><g clip-path="url(#9b206b824e)"><g clip-path="url(#2f83944415)"><g clip-path="url(#5c5a620d85)"><path fill="#52c000" d="M 930.050781 829.773438 L 915.863281 799.347656 L 926.878906 845.523438 L 936.457031 832.253906 L 950.644531 862.683594 L 939.628906 816.503906 L 930.050781 829.773438 " fill-opacity="1" fill-rule="nonzero"/></g></g></g><g clip-path="url(#6311c0b38a)"><g clip-path="url(#4b921937c0)"><g clip-path="url(#2a1e600692)"><path fill="#52c000" d="M 812.660156 1528.1875 L 849.394531 1506.851562 L 792.5625 1525.984375 L 810.203125 1536.542969 L 773.464844 1557.878906 L 830.296875 1538.75 L 812.660156 1528.1875 " fill-opacity="1" fill-rule="nonzero"/></g></g></g><g clip-path="url(#8ba49cb876)"><g clip-path="url(#38abe6e93c)"><g clip-path="url(#5cdbd056b0)"><path fill="#52c000" d="M 883.085938 1540.386719 L 887.867188 1498.175781 L 869.332031 1555.199219 L 888.328125 1547.339844 L 883.542969 1589.554688 L 902.082031 1532.527344 L 883.085938 1540.386719 " fill-opacity="1" fill-rule="nonzero"/></g></g></g><g clip-path="url(#213dba274d)"><g clip-path="url(#45587348b6)"><g clip-path="url(#bd36a77af6)"><path fill="#52c000" d="M 954.296875 1536.28125 L 936.183594 1497.851562 L 950.375 1556.113281 L 962.410156 1539.445312 L 980.519531 1577.871094 L 966.328125 1519.613281 L 954.296875 1536.28125 " fill-opacity="1" fill-rule="nonzero"/></g></g></g><g clip-path="url(#0120ea478d)"><g clip-path="url(#798c1b8f93)"><g clip-path="url(#d54c1b06bc)"><g clip-path="url(#e3b2346c72)"><path stroke-linecap="butt" transform="matrix(0.618968, 0.50232, -0.50232, 0.618968, 862.366553, 1242.128183)" fill="none" stroke-linejoin="miter" d="M 132.302477 -0.000621911 C 59.234928 -0.000389667 0.00178191 59.233941 -0.00179079 132.304579 C 0.00152934 205.375933 59.23586 264.609079 132.30341 264.608847 C 205.374047 264.612419 264.610998 205.375001 264.607678 132.303646 C 264.607446 59.236097 205.37692 -0.00013709 132.302477 -0.000621911 " stroke="#52c000" stroke-width="28.265303" stroke-opacity="1" stroke-miterlimit="4"/></g></g></g></g><g clip-path="url(#c4c522c080)"><g clip-path="url(#b183e84e26)"><path fill="#ffffff" d="M 918.152344 1340.46875 C 890.675781 1318.167969 850.320312 1322.367188 828.023438 1349.84375 C 805.722656 1377.320312 809.921875 1417.675781 837.398438 1439.972656 C 864.875 1462.273438 905.230469 1458.074219 927.527344 1430.597656 C 949.828125 1403.121094 945.628906 1362.765625 918.152344 1340.46875 " fill-opacity="1" fill-rule="nonzero"/></g></g><g clip-path="url(#d90707ca25)"><g clip-path="url(#91c57486ce)"><g clip-path="url(#adfa016670)"><g clip-path="url(#13a7e69557)"><path stroke-linecap="butt" transform="matrix(0.617755, 0.501336, -0.501336, 0.617755, 868.399349, 1300.090244)" fill="none" stroke-linejoin="miter" d="M 80.539724 0.00170065 C 36.059814 -0.000574721 -0.000301328 36.061352 0.00123572 80.538168 C -0.00103965 125.018078 36.060887 161.078193 80.537703 161.076656 C 125.017613 161.078932 161.077728 125.017005 161.076191 80.540189 C 161.078467 36.060279 125.01654 0.000163602 80.539724 0.00170065 " stroke="#52c000" stroke-width="28.265303" stroke-opacity="1" stroke-miterlimit="4"/></g></g></g></g><g clip-path="url(#1ccb8d82e1)"><g clip-path="url(#c138bb201c)"><g clip-path="url(#152b8a3154)"><path fill="#52c000" d="M 992.773438 1465.890625 L 985.113281 1459.671875 C 1027.222656 1407.785156 1020.394531 1342.125 968.5 1300.011719 L 974.722656 1292.347656 C 1030.230469 1337.398438 1037.824219 1410.382812 992.773438 1465.890625 Z M 992.773438 1465.890625 " fill-opacity="1" fill-rule="nonzero"/></g></g></g><g clip-path="url(#1cc76c1ffa)"><g clip-path="url(#e166c9fc6f)"><g clip-path="url(#b60ac47ece)"><path fill="#52c000" d="M 762.941406 1314.808594 L 770.605469 1321.027344 C 728.492188 1372.914062 735.320312 1438.574219 787.214844 1480.6875 L 780.992188 1488.351562 C 725.484375 1443.300781 717.890625 1370.316406 762.941406 1314.808594 Z M 762.941406 1314.808594 " fill-opacity="1" fill-rule="nonzero"/></g></g></g><g clip-path="url(#5018ff13f3)"><g clip-path="url(#0724477662)"><g clip-path="url(#408fef8dd2)"><g clip-path="url(#b28d92e70e)"><path stroke-linecap="butt" transform="matrix(0.591919, 0.533926, -0.533926, 0.591919, 870.115686, 529.679194)" fill="none" stroke-linejoin="miter" d="M 132.305099 -0.000118476 C 59.235173 -0.00292379 0.000296445 59.235839 0.00112981 132.302484 C 0.00160668 205.376049 59.233449 264.610569 132.307014 264.610092 C 205.373658 264.609258 264.611817 205.374134 264.607701 132.303851 C 264.610507 59.233925 205.375026 0.00268684 132.305099 -0.000118476 " stroke="#52c000" stroke-width="28.265303" stroke-opacity="1" stroke-miterlimit="4"/></g></g></g></g><g clip-path="url(#917eaa4008)"><g clip-path="url(#8e4e1570f7)"><path fill="#ffffff" d="M 920.695312 630.792969 C 894.417969 607.089844 853.902344 609.179688 830.199219 635.457031 C 806.496094 661.734375 808.582031 702.25 834.859375 725.953125 C 861.136719 749.65625 901.65625 747.570312 925.359375 721.292969 C 949.058594 695.015625 946.972656 654.496094 920.695312 630.792969 " fill-opacity="1" fill-rule="nonzero"/></g></g><g clip-path="url(#e7b8ed1c23)"><g clip-path="url(#d720f9a410)"><g clip-path="url(#be2304ca75)"><g clip-path="url(#416fe8522d)"><path stroke-linecap="butt" transform="matrix(0.59076, 0.532881, -0.532881, 0.59076, 873.116653, 587.876559)" fill="none" stroke-linejoin="miter" d="M 80.5374 -0.000707002 C 36.056591 -0.000976843 0.00154711 36.059145 0.00127727 80.539954 C 0.00100743 125.020763 36.057483 161.079095 80.538292 161.079365 C 125.019101 161.079635 161.081079 125.01987 161.081349 80.539061 C 161.077973 36.061541 125.018209 -0.00043716 80.5374 -0.000707002 " stroke="#52c000" stroke-width="28.265303" stroke-opacity="1" stroke-miterlimit="4"/></g></g></g></g><g clip-path="url(#ad093850ce)"><g clip-path="url(#b86b8c2cff)"><g clip-path="url(#7025fa7e38)"><path fill="#52c000" d="M 988.671875 759.941406 L 981.34375 753.332031 C 1026.105469 703.710938 1022.710938 637.785156 973.085938 593.023438 L 979.699219 585.691406 C 1032.78125 633.574219 1036.554688 706.859375 988.671875 759.941406 Z M 988.671875 759.941406 " fill-opacity="1" fill-rule="nonzero"/></g></g></g><g clip-path="url(#a0653587a8)"><g clip-path="url(#390acb0083)"><g clip-path="url(#d3cbaca304)"><path fill="#52c000" d="M 767.03125 597.074219 L 774.363281 603.683594 C 729.601562 653.304688 732.996094 719.230469 782.621094 763.992188 L 776.007812 771.320312 C 722.925781 723.4375 719.148438 650.15625 767.03125 597.074219 Z M 767.03125 597.074219 " fill-opacity="1" fill-rule="nonzero"/></g></g></g></svg>