<svg xmlns="http://www.w3.org/2000/svg" xmlns:xlink="http://www.w3.org/1999/xlink" width="2300" zoomAndPan="magnify" viewBox="0 0 1724.88 1724.999932" height="2300" preserveAspectRatio="xMidYMid meet" version="1.0"><defs><clipPath id="32f2963c34"><path d="M 15.074219 15.085938 L 1707.988281 15.085938 L 1707.988281 1708 L 15.074219 1708 Z M 15.074219 15.085938 " clip-rule="nonzero"/></clipPath><clipPath id="da79cf521e"><path d="M 1226 993 L 1437 993 L 1437 1096 L 1226 1096 Z M 1226 993 " clip-rule="nonzero"/></clipPath><clipPath id="b578061bc2"><path d="M 1358.03125 931.179688 L 1436.671875 994.015625 L 1305.292969 1158.445312 L 1226.652344 1095.613281 Z M 1358.03125 931.179688 " clip-rule="nonzero"/></clipPath><clipPath id="f34fa5d9a3"><path d="M 1358.03125 931.179688 L 1436.671875 994.015625 L 1305.292969 1158.445312 L 1226.652344 1095.613281 Z M 1358.03125 931.179688 " clip-rule="nonzero"/></clipPath><clipPath id="0c26a6dbe4"><path d="M 1255 1152 L 1489 1152 L 1489 1238 L 1255 1238 Z M 1255 1152 " clip-rule="nonzero"/></clipPath><clipPath id="bea3b059dd"><path d="M 1449.84375 1108.316406 L 1488.328125 1201.328125 L 1293.84375 1281.796875 L 1255.359375 1188.785156 Z M 1449.84375 1108.316406 " clip-rule="nonzero"/></clipPath><clipPath id="15783abc9d"><path d="M 1449.84375 1108.316406 L 1488.328125 1201.328125 L 1293.84375 1281.796875 L 1255.359375 1188.785156 Z M 1449.84375 1108.316406 " clip-rule="nonzero"/></clipPath><clipPath id="5e1f9eca41"><path d="M 1271 1283 L 1464 1283 L 1464 1417 L 1271 1417 Z M 1271 1283 " clip-rule="nonzero"/></clipPath><clipPath id="2fde6b2e87"><path d="M 1479.359375 1317.15625 L 1463.441406 1416.550781 L 1255.617188 1383.265625 L 1271.539062 1283.871094 Z M 1479.359375 1317.15625 " clip-rule="nonzero"/></clipPath><clipPath id="59ff79363f"><path d="M 1479.359375 1317.15625 L 1463.441406 1416.550781 L 1255.617188 1383.265625 L 1271.539062 1283.871094 Z M 1479.359375 1317.15625 " clip-rule="nonzero"/></clipPath><clipPath id="d69b96cb81"><path d="M 932.328125 1172.425781 L 1087.890625 1172.425781 L 1087.890625 1327.988281 L 932.328125 1327.988281 Z M 932.328125 1172.425781 " clip-rule="nonzero"/></clipPath><clipPath id="6956464aa9"><path d="M 1010.109375 1172.425781 C 967.152344 1172.425781 932.328125 1207.25 932.328125 1250.207031 C 932.328125 1293.164062 967.152344 1327.988281 1010.109375 1327.988281 C 1053.066406 1327.988281 1087.890625 1293.164062 1087.890625 1250.207031 C 1087.890625 1207.25 1053.066406 1172.425781 1010.109375 1172.425781 " clip-rule="nonzero"/></clipPath><clipPath id="6a7b92f269"><path d="M 962.492188 1202.597656 L 1054 1202.597656 L 1054 1294.109375 L 962.492188 1294.109375 Z M 962.492188 1202.597656 " clip-rule="nonzero"/></clipPath><clipPath id="d2c399d455"><path d="M 1008.246094 1202.597656 C 982.976562 1202.597656 962.492188 1223.082031 962.492188 1248.351562 C 962.492188 1273.621094 982.976562 1294.109375 1008.246094 1294.109375 C 1033.515625 1294.109375 1054 1273.621094 1054 1248.351562 C 1054 1223.082031 1033.515625 1202.597656 1008.246094 1202.597656 " clip-rule="nonzero"/></clipPath><clipPath id="5bc1379d00"><path d="M 1019.386719 1149.136719 L 1110.894531 1149.136719 L 1110.894531 1240.644531 L 1019.386719 1240.644531 Z M 1019.386719 1149.136719 " clip-rule="nonzero"/></clipPath><clipPath id="9555735cc7"><path d="M 908.074219 1258.363281 L 999.585938 1258.363281 L 999.585938 1349.871094 L 908.074219 1349.871094 Z M 908.074219 1258.363281 " clip-rule="nonzero"/></clipPath></defs><g clip-path="url(#32f2963c34)"><path fill="#52c000" d="M 861.53125 15.085938 C 394.046875 15.085938 15.074219 394.058594 15.074219 861.542969 C 15.074219 1329.027344 394.046875 1708 861.53125 1708 C 1329.019531 1708 1707.988281 1329.027344 1707.988281 861.542969 C 1707.988281 394.058594 1329.019531 15.085938 861.53125 15.085938 " fill-opacity="1" fill-rule="nonzero"/></g><path fill="#ffffff" d="M 660.417969 1426.929688 L 1189.152344 1426.929688 C 1166.9375 1322.679688 1140.347656 1151.175781 1151.792969 1109.140625 C 1170.644531 1037.847656 1231.558594 984.039062 1254.449219 926.871094 C 1370.898438 636.324219 1228.609375 383.371094 906.78125 349.8125 C 622.613281 320.171875 464.546875 481.292969 442.328125 647.757812 C 439.972656 665.582031 442.328125 683.402344 450.742188 701.898438 C 411.703125 762.765625 321.835938 852.558594 314.097656 895.601562 C 309.386719 921.496094 340.011719 930.574219 354.824219 939.65625 C 368.960938 944.363281 384.441406 941 393.863281 952.433594 C 400.59375 960.839844 391.507812 974.964844 389.488281 985.390625 C 389.148438 1002.539062 368.960938 1010.945312 370.976562 1026.75 C 373 1040.203125 384.441406 1045.585938 394.875 1053.992188 C 405.980469 1062.734375 366.601562 1079.546875 379.390625 1095.019531 C 392.515625 1110.148438 411.703125 1127.636719 404.96875 1149.160156 C 395.207031 1182.453125 376.355469 1217.085938 391.839844 1242.980469 C 407.328125 1268.539062 428.863281 1283.671875 462.183594 1290.394531 C 514.347656 1290.394531 566.851562 1291.410156 619.355469 1291.410156 C 637.527344 1307.214844 650.316406 1358.332031 660.417969 1426.933594 L 660.414062 1426.933594 Z M 660.417969 1426.929688 " fill-opacity="1" fill-rule="nonzero"/><g clip-path="url(#da79cf521e)"><g clip-path="url(#b578061bc2)"><g clip-path="url(#f34fa5d9a3)"><path fill="#ffffff" d="M 1336.164062 1034.691406 L 1436.625 993.972656 L 1285.722656 1021.828125 L 1327.1875 1054.957031 L 1226.71875 1095.671875 L 1377.625 1067.820312 L 1336.164062 1034.691406 " fill-opacity="1" fill-rule="nonzero"/></g></g></g><g clip-path="url(#0c26a6dbe4)"><g clip-path="url(#bea3b059dd)"><g clip-path="url(#15783abc9d)"><path fill="#ffffff" d="M 1380.675781 1188.371094 L 1488.308594 1201.273438 L 1342.734375 1152.730469 L 1363.023438 1201.773438 L 1255.390625 1188.871094 L 1400.964844 1237.410156 L 1380.675781 1188.371094 " fill-opacity="1" fill-rule="nonzero"/></g></g></g><g clip-path="url(#5e1f9eca41)"><g clip-path="url(#2fde6b2e87)"><g clip-path="url(#59ff79363f)"><path fill="#ffffff" d="M 1378.511719 1349.140625 L 1463.453125 1416.492188 L 1364.851562 1298.910156 L 1356.457031 1351.316406 L 1271.519531 1283.960938 L 1370.121094 1401.542969 L 1378.511719 1349.140625 " fill-opacity="1" fill-rule="nonzero"/></g></g></g><g clip-path="url(#d69b96cb81)"><g clip-path="url(#6956464aa9)"><path stroke-linecap="butt" transform="matrix(9.235777, 0, 0, 9.235777, 932.326723, 1172.424771)" fill="none" stroke-linejoin="miter" d="M 8.421885 0.00010934 C 3.77073 0.00010934 0.000151787 3.770688 0.000151787 8.421843 C 0.000151787 13.072998 3.77073 16.843577 8.421885 16.843577 C 13.073041 16.843577 16.843619 13.072998 16.843619 8.421843 C 16.843619 3.770688 13.073041 0.00010934 8.421885 0.00010934 " stroke="#52c000" stroke-width="1.639071" stroke-opacity="1" stroke-miterlimit="4"/></g></g><g clip-path="url(#6a7b92f269)"><g clip-path="url(#d2c399d455)"><path stroke-linecap="butt" transform="matrix(8.927696, 0, 0, 8.927696, 962.491903, 1202.598903)" fill="none" stroke-linejoin="miter" d="M 5.124972 -0.000139643 C 2.294507 -0.000139643 0.0000318361 2.294335 0.0000318361 5.1248 C 0.0000318361 7.955265 2.294507 10.250178 5.124972 10.250178 C 7.955437 10.250178 10.249911 7.955265 10.249911 5.1248 C 10.249911 2.294335 7.955437 -0.000139643 5.124972 -0.000139643 " stroke="#52c000" stroke-width="1.639071" stroke-opacity="1" stroke-miterlimit="4"/></g></g><g clip-path="url(#5bc1379d00)"><path fill="#52c000" d="M 1110.894531 1240.644531 L 1103.574219 1240.644531 C 1103.574219 1191.082031 1068.953125 1156.457031 1019.386719 1156.457031 L 1019.386719 1149.136719 C 1072.410156 1149.136719 1110.894531 1187.621094 1110.894531 1240.644531 Z M 1110.894531 1240.644531 " fill-opacity="1" fill-rule="nonzero"/></g><g clip-path="url(#9555735cc7)"><path fill="#52c000" d="M 908.074219 1258.363281 L 915.394531 1258.363281 C 915.394531 1307.925781 950.015625 1342.550781 999.585938 1342.550781 L 999.585938 1349.871094 C 946.5625 1349.871094 908.074219 1311.386719 908.074219 1258.363281 Z M 908.074219 1258.363281 " fill-opacity="1" fill-rule="nonzero"/></g></svg>