<svg xmlns="http://www.w3.org/2000/svg" xmlns:xlink="http://www.w3.org/1999/xlink" width="2300" zoomAndPan="magnify" viewBox="0 0 1724.88 1724.999932" height="2300" preserveAspectRatio="xMidYMid meet" version="1.0"><defs><clipPath id="cc514dc594"><path d="M 10.605469 10.664062 L 1714.484375 10.664062 L 1714.484375 1714.546875 L 10.605469 1714.546875 Z M 10.605469 10.664062 " clip-rule="nonzero"/></clipPath><clipPath id="2a1da6be72"><path d="M 782 678 L 1007 678 L 1007 1425 L 782 1425 Z M 782 678 " clip-rule="nonzero"/></clipPath><clipPath id="e5b1f43639"><path d="M 782.289062 684.921875 L 982.417969 678.363281 L 1006.652344 1418.167969 L 806.523438 1424.722656 Z M 782.289062 684.921875 " clip-rule="nonzero"/></clipPath><clipPath id="d1140baafd"><path d="M 321 137 L 761 137 L 761 553 L 321 553 Z M 321 137 " clip-rule="nonzero"/></clipPath><clipPath id="c9cb026cfb"><path d="M 299.542969 254.621094 L 659.160156 115.824219 L 782.566406 435.558594 L 422.949219 574.359375 Z M 299.542969 254.621094 " clip-rule="nonzero"/></clipPath><clipPath id="32fb4edf8a"><path d="M 204 189 L 645 189 L 645 605 L 204 605 Z M 204 189 " clip-rule="nonzero"/></clipPath><clipPath id="6007295139"><path d="M 182.964844 306.75 L 542.582031 167.949219 L 665.988281 487.6875 L 306.371094 626.484375 Z M 182.964844 306.75 " clip-rule="nonzero"/></clipPath><clipPath id="1825ffefa3"><path d="M 185 288 L 745 288 L 745 658 L 185 658 Z M 185 288 " clip-rule="nonzero"/></clipPath><clipPath id="8b72fd7380"><path d="M 163.609375 467.628906 L 684.148438 266.722656 L 765.96875 478.714844 L 245.433594 679.621094 Z M 163.609375 467.628906 " clip-rule="nonzero"/></clipPath><clipPath id="d091eefa64"><path d="M 185 259 L 721 259 L 721 620 L 185 620 Z M 185 259 " clip-rule="nonzero"/></clipPath><clipPath id="567e141cd8"><path d="M 163.609375 429.867188 L 661.058594 237.871094 L 742.878906 449.863281 L 245.433594 641.859375 Z M 163.609375 429.867188 " clip-rule="nonzero"/></clipPath><clipPath id="530405f984"><path d="M 225 232 L 761 232 L 761 593 L 225 593 Z M 225 232 " clip-rule="nonzero"/></clipPath><clipPath id="50e1eae919"><path d="M 203.191406 402.839844 L 700.640625 210.84375 L 782.460938 422.835938 L 285.011719 614.832031 Z M 203.191406 402.839844 " clip-rule="nonzero"/></clipPath><clipPath id="b6b9c80cef"><path d="M 698 376 L 909 376 L 909 601 L 698 601 Z M 698 376 " clip-rule="nonzero"/></clipPath><clipPath id="1dbdf80042"><path d="M 676.960938 422.136719 L 853.269531 354.089844 L 930.769531 554.886719 L 754.460938 622.9375 Z M 676.960938 422.136719 " clip-rule="nonzero"/></clipPath><clipPath id="a7f85a101e"><path d="M 708 343 L 919 343 L 919 568 L 708 568 Z M 708 343 " clip-rule="nonzero"/></clipPath><clipPath id="b84b6884fd"><path d="M 686.273438 389.128906 L 862.582031 321.078125 L 940.082031 521.878906 L 763.773438 589.925781 Z M 686.273438 389.128906 " clip-rule="nonzero"/></clipPath><clipPath id="fd8ff6a05f"><path d="M 348 447 L 841 447 L 841 782 L 348 782 Z M 348 447 " clip-rule="nonzero"/></clipPath><clipPath id="1831c09d2b"><path d="M 326.382812 603.066406 L 785.351562 425.921875 L 862.851562 626.71875 L 403.882812 803.863281 Z M 326.382812 603.066406 " clip-rule="nonzero"/></clipPath><clipPath id="67f22f5dfc"><path d="M 838.902344 622.683594 L 876.402344 622.683594 L 876.402344 660.929688 L 838.902344 660.929688 Z M 838.902344 622.683594 " clip-rule="nonzero"/></clipPath><clipPath id="da1f6b3861"><path d="M 887.671875 555.183594 L 925.171875 555.183594 L 925.171875 593.433594 L 887.671875 593.433594 Z M 887.671875 555.183594 " clip-rule="nonzero"/></clipPath><clipPath id="a9681892b5"><path d="M 825.277344 694.402344 L 862.777344 694.402344 L 862.777344 732.648438 L 825.277344 732.648438 Z M 825.277344 694.402344 " clip-rule="nonzero"/></clipPath><clipPath id="54339c3064"><path d="M 825.277344 771.058594 L 862.777344 771.058594 L 862.777344 809.304688 L 825.277344 809.304688 Z M 825.277344 771.058594 " clip-rule="nonzero"/></clipPath><clipPath id="c20fec6f4f"><path d="M 850.511719 836.875 L 888.007812 836.875 L 888.007812 875.121094 L 850.511719 875.121094 Z M 850.511719 836.875 " clip-rule="nonzero"/></clipPath><clipPath id="a1824c124e"><path d="M 894.644531 894.359375 L 932.140625 894.359375 L 932.140625 932.605469 L 894.644531 932.605469 Z M 894.644531 894.359375 " clip-rule="nonzero"/></clipPath><clipPath id="29cc9fbb18"><path d="M 951.257812 940.40625 L 988.757812 940.40625 L 988.757812 978.652344 L 951.257812 978.652344 Z M 951.257812 940.40625 " clip-rule="nonzero"/></clipPath><clipPath id="0b62d9ab2d"><path d="M 988.421875 1027.417969 L 1025.917969 1027.417969 L 1025.917969 1065.664062 L 988.421875 1065.664062 Z M 988.421875 1027.417969 " clip-rule="nonzero"/></clipPath><clipPath id="e6d7942c16"><path d="M 976.984375 1115.5625 L 1014.480469 1115.5625 L 1014.480469 1153.808594 L 976.984375 1153.808594 Z M 976.984375 1115.5625 " clip-rule="nonzero"/></clipPath><clipPath id="84c8a26fa4"><path d="M 924.832031 1173.398438 L 962.332031 1173.398438 L 962.332031 1211.644531 L 924.832031 1211.644531 Z M 924.832031 1173.398438 " clip-rule="nonzero"/></clipPath><clipPath id="e772727364"><path d="M 876.0625 1233.535156 L 913.5625 1233.535156 L 913.5625 1271.78125 L 876.0625 1271.78125 Z M 876.0625 1233.535156 " clip-rule="nonzero"/></clipPath></defs><g clip-path="url(#cc514dc594)"><path fill="#52c000" d="M 862.542969 10.664062 C 392.03125 10.664062 10.605469 392.089844 10.605469 862.605469 C 10.605469 1333.117188 392.03125 1714.546875 862.542969 1714.546875 C 1333.058594 1714.546875 1714.484375 1333.117188 1714.484375 862.605469 C 1714.484375 392.089844 1333.058594 10.664062 862.542969 10.664062 " fill-opacity="1" fill-rule="nonzero"/></g><path fill="#ffffff" d="M 758.199219 238.222656 C 758.902344 238.5 759.460938 238.78125 760.066406 239.109375 C 791.199219 247.042969 816.730469 240.835938 844.40625 224.40625 C 852.714844 219.554688 866.339844 216.285156 876.003906 216.847656 C 902.980469 218.199219 934.902344 227.953125 956.511719 201.867188 C 964.914062 191.785156 971.167969 181.144531 976.816406 169.945312 C 880.296875 169.664062 783.636719 168.21875 687.304688 175.171875 C 700.28125 205.925781 725.808594 227.675781 758.199219 238.222656 " fill-opacity="1" fill-rule="nonzero"/><path fill="#ffffff" d="M 1084.535156 850.480469 C 1066.242188 840.167969 1040.617188 825.140625 1016.859375 801.757812 C 1005.144531 789.949219 995.578125 776.789062 988.8125 763.863281 C 981.808594 750.886719 978.542969 737.914062 976.628906 727.273438 C 975.136719 716.351562 974.761719 707.578125 975.742188 701.558594 C 976.394531 695.585938 977.28125 692.269531 978.449219 692.269531 C 981.15625 692.269531 982.230469 705.339844 987.832031 724.660156 C 991.003906 734.132812 994.972656 745.382812 1001.925781 756.582031 C 1008.738281 767.828125 1017.609375 779.308594 1028.4375 790.230469 C 1050.417969 811.792969 1074.175781 828.078125 1090.835938 840.820312 C 1107.546875 853.421875 1117.535156 862.007812 1116.273438 863.921875 C 1115.011719 865.789062 1103.019531 860.65625 1084.535156 850.480469 Z M 927.667969 467.417969 C 926.6875 465.597656 931.355469 459.574219 941.671875 452.714844 C 953.011719 445.761719 969.953125 440.253906 988.902344 438.433594 C 1007.761719 436.847656 1024.5625 438.109375 1036.464844 439.648438 C 1048.457031 441.328125 1055.832031 443.429688 1055.832031 445.667969 C 1055.832031 447.910156 1048.363281 449.914062 1036.371094 451.269531 C 1024.375 452.621094 1007.945312 453.230469 990.445312 454.675781 C 972.941406 456.402344 957.632812 459.667969 947.179688 462.890625 C 936.257812 466.761719 928.835938 469.5625 927.667969 467.417969 Z M 885.011719 971.683594 C 882.398438 1079.117188 876.609375 1166.15625 872.035156 1166.15625 C 867.507812 1166.0625 866.0625 1078.835938 868.769531 971.402344 C 871.382812 863.921875 877.167969 776.882812 881.742188 776.882812 C 886.269531 776.882812 887.71875 864.15625 885.011719 971.683594 Z M 876.890625 1393.4375 C 872.363281 1393.4375 868.769531 1362.589844 868.769531 1324.550781 C 868.769531 1286.46875 872.363281 1255.621094 876.890625 1255.621094 C 881.417969 1255.621094 885.011719 1286.46875 885.011719 1324.550781 C 885.011719 1362.589844 881.417969 1393.4375 876.890625 1393.4375 Z M 777.945312 733.761719 C 769.636719 752.335938 756.007812 777.863281 733.558594 800.871094 C 711.015625 823.878906 683.664062 836.855469 663.640625 841.988281 C 643.105469 847.214844 630.832031 846.421875 630.269531 844.601562 C 629.570312 842.175781 642.265625 838.582031 659.953125 831.160156 C 677.832031 823.507812 701.355469 810.34375 721.9375 789.390625 C 742.566406 768.296875 757.175781 745.101562 767.769531 728.347656 C 778.410156 711.546875 785.269531 701 787.417969 701.933594 C 789.378906 702.820312 786.15625 715.09375 777.945312 733.761719 Z M 665.929688 444.59375 C 679.605469 443.523438 698.273438 444.316406 718.296875 447.910156 C 758.292969 455.703125 788.398438 468.210938 787.417969 472.269531 C 786.34375 476.890625 753.953125 471.476562 715.355469 463.960938 C 696.03125 460.460938 678.625 458.035156 665.929688 456.121094 C 653 454.582031 644.785156 452.808594 644.785156 450.523438 C 644.785156 448.28125 652.722656 445.949219 665.929688 444.59375 Z M 376.558594 1179.222656 C 372.871094 1188.230469 366.710938 1195.558594 360.738281 1199.523438 C 355.277344 1202.511719 351.214844 1202.835938 349.769531 1201.15625 C 348.226562 1199.429688 350.09375 1195.652344 353.175781 1190.84375 C 355.183594 1186.363281 358.402344 1180.484375 361.390625 1173.015625 C 364.375 1165.59375 367.363281 1158.035156 370.492188 1152.902344 C 373.664062 1147.675781 376.652344 1144.875 378.796875 1145.667969 C 380.945312 1146.320312 381.785156 1150.378906 381.503906 1156.214844 C 381.226562 1162.1875 380.058594 1170.214844 376.558594 1179.222656 Z M 1457.777344 1109.777344 C 1452.925781 1037.90625 1425.152344 972.664062 1429.914062 900.417969 C 1434.535156 830.085938 1420.71875 767.734375 1409.097656 698.945312 C 1387.863281 573.917969 1318.972656 470.824219 1190.0625 442.074219 C 1141.804688 431.339844 1071.375 420.328125 1037.816406 378.742188 C 1029.136719 368.011719 1023.488281 356.996094 1020.035156 345.65625 C 1012.753906 337.160156 1006.78125 329.039062 1002.347656 322.085938 C 994.691406 310.1875 991.191406 301.972656 992.964844 300.617188 C 995.15625 298.9375 1003.09375 306.59375 1014.992188 318.585938 C 1007.761719 311.121094 1015.367188 213.71875 1015.882812 213.578125 C 1018.074219 212.972656 1021.667969 218.292969 1025.636719 227.300781 C 1027.363281 230.566406 1028.714844 234.953125 1030.070312 239.667969 C 1030.582031 239.574219 1031.050781 239.386719 1031.609375 239.386719 C 1061.152344 235.980469 1070.207031 200.792969 1076.601562 173.023438 C 1053.6875 174.46875 1030.863281 174.191406 1007.945312 171.765625 C 987.550781 216.378906 957.960938 254.089844 903.074219 247.976562 C 867.320312 244.007812 845.570312 262.769531 813.042969 271.125 C 798.433594 274.765625 782.097656 273.597656 766.742188 270.515625 C 762.589844 336.554688 733.652344 387.050781 667.003906 412.207031 C 590.226562 441.140625 493.101562 436.007812 435.179688 501.671875 C 388.367188 554.734375 364.84375 602.804688 353.175781 672.667969 C 343.609375 729.699219 335.300781 786.871094 321.71875 843.246094 C 296.28125 949.609375 264.964844 1055.222656 267.859375 1164.707031 C 269.769531 1172.828125 272.105469 1183.375 276.773438 1193.222656 C 281.671875 1203.769531 288.859375 1209.792969 295.816406 1212.871094 C 299.082031 1214.226562 302.117188 1215.484375 304.824219 1216.277344 C 307.203125 1217.210938 308.695312 1218.191406 308.695312 1219.359375 C 308.695312 1220.523438 307.296875 1221.597656 304.914062 1222.625 C 302.675781 1223.792969 298.613281 1224.398438 293.199219 1224.074219 C 288.535156 1223.511719 282.839844 1222.066406 277.519531 1218.472656 C 332.640625 1317.878906 417.210938 1397.683594 518.535156 1448.832031 C 524.558594 1416.816406 532.679688 1385.410156 547.195312 1354.839844 C 549.714844 1349.613281 552.28125 1344.386719 554.800781 1339.066406 C 483.71875 1292.675781 424.726562 1236.488281 409.929688 1149.027344 C 409.371094 1145.761719 409.835938 1142.773438 411.003906 1140.160156 C 410.910156 1138.480469 411.003906 1136.753906 411.5625 1134.933594 C 439.148438 1037.90625 493.425781 947.972656 498.046875 845.394531 C 498.140625 844.695312 498.234375 844.132812 498.328125 843.527344 C 492.726562 832.234375 487.03125 819.820312 481.617188 806.613281 C 457.628906 748.089844 438.867188 698.292969 446.519531 694.699219 C 453.476562 691.429688 483.625 734.273438 508.6875 795.269531 C 515.644531 812.117188 521.945312 828.078125 527.359375 842.359375 C 558.488281 891.96875 575.617188 944.101562 587.800781 1001.085938 C 598.535156 1051.160156 617.390625 1098.949219 627.9375 1148.839844 C 629.011719 1150.988281 630.085938 1153.085938 631.109375 1155.234375 C 651.832031 1196.628906 659.488281 1232.332031 655.707031 1233.871094 C 652.628906 1235.132812 645.066406 1220.433594 634.425781 1198.871094 C 630.457031 1249.925781 607.636719 1296.222656 585.371094 1342.191406 C 555.40625 1404.078125 545.511719 1463.535156 535.011719 1529.804688 C 655.195312 1549.640625 777.664062 1539.652344 898.964844 1540.121094 C 1018.867188 1540.632812 1147.03125 1554.074219 1266.1875 1536.757812 C 1257.972656 1406.785156 1206.679688 1285.910156 1139.097656 1175.722656 C 1138.398438 1174.976562 1137.835938 1174.089844 1137.464844 1173.015625 C 1127.847656 1201.34375 1117.253906 1220.433594 1113.847656 1219.359375 C 1109.273438 1217.910156 1117.253906 1187.0625 1127.289062 1150.472656 C 1134.941406 1122.425781 1143.625 1098.765625 1149.363281 1089.476562 C 1165.28125 1018.867188 1191.042969 951.054688 1215.59375 882.683594 C 1214.941406 876.804688 1217.601562 872.183594 1221.800781 869.476562 C 1223.621094 863.828125 1225.441406 858.320312 1227.402344 852.628906 C 1253.210938 780.011719 1280.28125 723.304688 1287.9375 726.105469 C 1295.589844 728.953125 1280.796875 789.949219 1254.9375 862.570312 C 1252.042969 871.109375 1249.152344 879.417969 1246.257812 887.445312 C 1266.839844 976.394531 1271.878906 1068.101562 1294.890625 1156.589844 C 1296.945312 1158.828125 1298.109375 1162 1297.597656 1166.15625 C 1292.371094 1215.578125 1266.558594 1256.601562 1235.335938 1294.078125 C 1235.054688 1294.402344 1234.730469 1294.589844 1234.449219 1294.964844 C 1249.429688 1329.5 1262.125 1365.015625 1272.160156 1401.183594 C 1313.746094 1368.980469 1360.371094 1341.960938 1397.148438 1304.4375 C 1421.417969 1279.796875 1436.960938 1253.800781 1446.4375 1225.9375 C 1444.617188 1229.484375 1442.28125 1232.894531 1439.667969 1236.066406 C 1428.46875 1249.226562 1414.746094 1256.085938 1404.664062 1259.496094 C 1394.210938 1262.855469 1387.863281 1262.480469 1387.070312 1260.476562 C 1386.183594 1258.234375 1391.921875 1254.546875 1399.671875 1249.132812 C 1407.464844 1243.535156 1418.433594 1235.972656 1427.207031 1225.519531 C 1431.453125 1220.339844 1434.535156 1215.113281 1436.496094 1209.976562 C 1438.316406 1204.84375 1438.59375 1199.992188 1438.503906 1195.652344 C 1437.941406 1186.96875 1435.703125 1180.761719 1437.847656 1179.503906 C 1438.828125 1178.847656 1440.460938 1179.597656 1442.796875 1181.835938 C 1445.175781 1183.84375 1447.695312 1187.714844 1449.84375 1193.128906 C 1451.105469 1197.003906 1451.945312 1201.859375 1451.757812 1207.179688 C 1459.039062 1177.074219 1460.113281 1144.78125 1457.777344 1109.777344 " fill-opacity="1" fill-rule="nonzero"/><g clip-path="url(#2a1da6be72)"><g clip-path="url(#e5b1f43639)"><path fill="#ffffff" d="M 782.289062 684.921875 L 982.417969 678.363281 L 1006.652344 1418.167969 L 806.523438 1424.722656 L 782.289062 684.921875 " fill-opacity="1" fill-rule="nonzero"/></g></g><g clip-path="url(#d1140baafd)"><g clip-path="url(#c9cb026cfb)"><path fill="#52c000" d="M 369.566406 227.59375 L 589.136719 142.847656 C 627.808594 127.921875 671.25 147.140625 686.160156 185.777344 L 755.566406 365.609375 C 770.480469 404.242188 751.214844 447.660156 712.542969 462.585938 L 492.972656 547.332031 C 454.300781 562.257812 410.863281 543.039062 395.953125 504.40625 L 326.542969 324.574219 C 311.632812 285.9375 330.894531 242.519531 369.566406 227.59375 " fill-opacity="1" fill-rule="nonzero"/></g></g><g clip-path="url(#32fb4edf8a)"><g clip-path="url(#6007295139)"><path fill="#52c000" d="M 252.988281 279.722656 L 472.558594 194.976562 C 511.230469 180.050781 554.667969 199.269531 569.578125 237.902344 L 638.988281 417.734375 C 653.898438 456.371094 634.636719 499.789062 595.964844 514.714844 L 376.394531 599.460938 C 337.71875 614.386719 294.28125 595.167969 279.371094 556.53125 L 209.964844 376.699219 C 195.050781 338.066406 214.316406 294.648438 252.988281 279.722656 " fill-opacity="1" fill-rule="nonzero"/></g></g><g clip-path="url(#1825ffefa3)"><g clip-path="url(#8b72fd7380)"><path fill="#52c000" d="M 233.585938 440.621094 L 614.171875 293.730469 C 652.816406 278.816406 696.234375 298.050781 711.148438 336.691406 L 738.957031 408.75 C 753.871094 447.390625 734.636719 490.808594 695.992188 505.722656 L 315.40625 652.613281 C 276.761719 667.527344 233.347656 648.292969 218.433594 609.652344 L 190.621094 537.59375 C 175.707031 498.953125 194.941406 455.535156 233.585938 440.621094 " fill-opacity="1" fill-rule="nonzero"/></g></g><g clip-path="url(#d091eefa64)"><g clip-path="url(#567e141cd8)"><path fill="#52c000" d="M 233.601562 402.851562 L 591.066406 264.886719 C 629.71875 249.964844 673.144531 269.199219 688.058594 307.839844 L 715.871094 379.898438 C 730.785156 418.539062 711.539062 461.960938 672.886719 476.878906 L 315.421875 614.84375 C 276.769531 629.761719 233.347656 610.53125 218.433594 571.890625 L 190.621094 499.832031 C 175.707031 461.1875 194.949219 417.769531 233.601562 402.851562 " fill-opacity="1" fill-rule="nonzero"/></g></g><g clip-path="url(#530405f984)"><g clip-path="url(#50e1eae919)"><path fill="#52c000" d="M 273.183594 375.824219 L 630.648438 237.859375 C 669.300781 222.9375 712.726562 242.171875 727.640625 280.8125 L 755.453125 352.871094 C 770.367188 391.511719 751.121094 434.929688 712.46875 449.851562 L 355.003906 587.816406 C 316.351562 602.734375 272.925781 583.503906 258.011719 544.863281 L 230.203125 472.804688 C 215.289062 434.160156 234.53125 390.742188 273.183594 375.824219 " fill-opacity="1" fill-rule="nonzero"/></g></g><g clip-path="url(#b6b9c80cef)"><g clip-path="url(#1dbdf80042)"><path fill="#fdfbfb" d="M 746.988281 395.109375 L 783.242188 381.117188 C 821.914062 366.191406 865.371094 385.453125 880.304688 424.140625 L 903.730469 484.835938 C 918.664062 523.523438 899.414062 566.988281 860.742188 581.914062 L 824.488281 595.90625 C 785.8125 610.835938 742.355469 591.570312 727.425781 552.882812 L 704 492.191406 C 689.066406 453.5 708.3125 410.035156 746.988281 395.109375 " fill-opacity="1" fill-rule="nonzero"/></g></g><g clip-path="url(#a7f85a101e)"><g clip-path="url(#b84b6884fd)"><path fill="#fdfbfb" d="M 756.300781 362.097656 L 792.554688 348.105469 C 831.230469 333.179688 874.6875 352.445312 889.617188 391.132812 L 913.042969 451.824219 C 927.976562 490.515625 908.730469 533.980469 870.054688 548.90625 L 833.800781 562.898438 C 795.125 577.824219 751.667969 558.5625 736.738281 519.871094 L 713.3125 459.179688 C 698.378906 420.492188 717.625 377.027344 756.300781 362.097656 " fill-opacity="1" fill-rule="nonzero"/></g></g><g clip-path="url(#fd8ff6a05f)"><g clip-path="url(#1831c09d2b)"><path fill="#fdfbfb" d="M 396.402344 576.042969 L 715.332031 452.945312 C 754 438.023438 797.449219 457.289062 812.382812 495.976562 L 835.804688 556.671875 C 850.738281 595.359375 831.5 638.820312 792.832031 653.742188 L 473.902344 776.839844 C 435.234375 791.761719 391.785156 772.496094 376.855469 733.808594 L 353.429688 673.113281 C 338.496094 634.425781 357.734375 590.964844 396.402344 576.042969 " fill-opacity="1" fill-rule="nonzero"/></g></g><g clip-path="url(#67f22f5dfc)"><path fill="#52c000" d="M 857.652344 622.683594 C 847.300781 622.683594 838.90625 631.246094 838.90625 641.804688 C 838.90625 652.367188 847.300781 660.929688 857.652344 660.929688 C 868.003906 660.929688 876.398438 652.367188 876.398438 641.804688 C 876.398438 631.246094 868.003906 622.683594 857.652344 622.683594 " fill-opacity="1" fill-rule="nonzero"/></g><g clip-path="url(#da1f6b3861)"><path fill="#52c000" d="M 906.421875 555.183594 C 896.070312 555.183594 887.675781 563.746094 887.675781 574.308594 C 887.675781 584.871094 896.070312 593.433594 906.421875 593.433594 C 916.773438 593.433594 925.167969 584.871094 925.167969 574.308594 C 925.167969 563.746094 916.773438 555.183594 906.421875 555.183594 " fill-opacity="1" fill-rule="nonzero"/></g><g clip-path="url(#a9681892b5)"><path fill="#52c000" d="M 844.027344 694.402344 C 833.675781 694.402344 825.28125 702.964844 825.28125 713.527344 C 825.28125 724.089844 833.675781 732.648438 844.027344 732.648438 C 854.378906 732.648438 862.773438 724.089844 862.773438 713.527344 C 862.773438 702.964844 854.378906 694.402344 844.027344 694.402344 " fill-opacity="1" fill-rule="nonzero"/></g><g clip-path="url(#54339c3064)"><path fill="#52c000" d="M 844.027344 771.058594 C 833.675781 771.058594 825.28125 779.621094 825.28125 790.183594 C 825.28125 800.742188 833.675781 809.304688 844.027344 809.304688 C 854.378906 809.304688 862.773438 800.742188 862.773438 790.183594 C 862.773438 779.621094 854.378906 771.058594 844.027344 771.058594 " fill-opacity="1" fill-rule="nonzero"/></g><g clip-path="url(#c20fec6f4f)"><path fill="#52c000" d="M 869.261719 836.875 C 858.90625 836.875 850.515625 845.433594 850.515625 855.996094 C 850.515625 866.558594 858.90625 875.121094 869.261719 875.121094 C 879.613281 875.121094 888.003906 866.558594 888.003906 855.996094 C 888.003906 845.433594 879.613281 836.875 869.261719 836.875 " fill-opacity="1" fill-rule="nonzero"/></g><g clip-path="url(#a1824c124e)"><path fill="#52c000" d="M 913.394531 894.359375 C 903.039062 894.359375 894.648438 902.921875 894.648438 913.484375 C 894.648438 924.046875 903.039062 932.605469 913.394531 932.605469 C 923.746094 932.605469 932.136719 924.046875 932.136719 913.484375 C 932.136719 902.921875 923.746094 894.359375 913.394531 894.359375 " fill-opacity="1" fill-rule="nonzero"/></g><g clip-path="url(#29cc9fbb18)"><path fill="#52c000" d="M 970.007812 940.40625 C 959.65625 940.40625 951.261719 948.96875 951.261719 959.527344 C 951.261719 970.089844 959.65625 978.652344 970.007812 978.652344 C 980.359375 978.652344 988.753906 970.089844 988.753906 959.527344 C 988.753906 948.96875 980.359375 940.40625 970.007812 940.40625 " fill-opacity="1" fill-rule="nonzero"/></g><g clip-path="url(#0b62d9ab2d)"><path fill="#52c000" d="M 1007.167969 1027.417969 C 996.816406 1027.417969 988.421875 1035.980469 988.421875 1046.542969 C 988.421875 1057.101562 996.816406 1065.664062 1007.167969 1065.664062 C 1017.519531 1065.664062 1025.914062 1057.101562 1025.914062 1046.542969 C 1025.914062 1035.980469 1017.519531 1027.417969 1007.167969 1027.417969 " fill-opacity="1" fill-rule="nonzero"/></g><g clip-path="url(#e6d7942c16)"><path fill="#52c000" d="M 995.734375 1115.5625 C 985.378906 1115.5625 976.988281 1124.125 976.988281 1134.6875 C 976.988281 1145.25 985.378906 1153.808594 995.734375 1153.808594 C 1006.085938 1153.808594 1014.476562 1145.25 1014.476562 1134.6875 C 1014.476562 1124.125 1006.085938 1115.5625 995.734375 1115.5625 " fill-opacity="1" fill-rule="nonzero"/></g><g clip-path="url(#84c8a26fa4)"><path fill="#52c000" d="M 943.582031 1173.398438 C 933.230469 1173.398438 924.835938 1181.960938 924.835938 1192.519531 C 924.835938 1203.082031 933.230469 1211.644531 943.582031 1211.644531 C 953.933594 1211.644531 962.328125 1203.082031 962.328125 1192.519531 C 962.328125 1181.960938 953.933594 1173.398438 943.582031 1173.398438 " fill-opacity="1" fill-rule="nonzero"/></g><g clip-path="url(#e772727364)"><path fill="#52c000" d="M 894.8125 1233.535156 C 884.460938 1233.535156 876.066406 1242.097656 876.066406 1252.660156 C 876.066406 1263.222656 884.460938 1271.78125 894.8125 1271.78125 C 905.164062 1271.78125 913.558594 1263.222656 913.558594 1252.660156 C 913.558594 1242.097656 905.164062 1233.535156 894.8125 1233.535156 " fill-opacity="1" fill-rule="nonzero"/></g></svg>