<svg xmlns="http://www.w3.org/2000/svg" xmlns:xlink="http://www.w3.org/1999/xlink" width="2300" zoomAndPan="magnify" viewBox="0 0 1724.88 1724.999932" height="2300" preserveAspectRatio="xMidYMid meet" version="1.0"><defs><clipPath id="547fc00866"><path d="M 10.128906 10.191406 L 1714.761719 10.191406 L 1714.761719 1714.820312 L 10.128906 1714.820312 Z M 10.128906 10.191406 " clip-rule="nonzero"/></clipPath><clipPath id="6cccb6d2c5"><path d="M 310 159 L 1445 159 L 1445 1478.304688 L 310 1478.304688 Z M 310 159 " clip-rule="nonzero"/></clipPath></defs><g clip-path="url(#547fc00866)"><path fill="#52c000" d="M 862.445312 10.191406 C 391.726562 10.191406 10.128906 391.785156 10.128906 862.507812 C 10.128906 1333.226562 391.726562 1714.820312 862.445312 1714.820312 C 1333.167969 1714.820312 1714.761719 1333.226562 1714.761719 862.507812 C 1714.761719 391.785156 1333.167969 10.191406 862.445312 10.191406 " fill-opacity="1" fill-rule="nonzero"/></g><path fill="#ffffff" d="M 1361.390625 550.179688 C 1360.953125 544.507812 1355.980469 540.289062 1350.324219 540.695312 L 1339.65625 541.515625 C 1333.976562 541.953125 1329.730469 546.90625 1330.167969 552.582031 C 1330.585938 557.984375 1335.101562 562.09375 1340.433594 562.09375 C 1340.695312 562.09375 1340.96875 562.082031 1341.234375 562.0625 L 1351.902344 561.242188 C 1357.578125 560.804688 1361.828125 555.855469 1361.390625 550.179688 Z M 1361.390625 550.179688 " fill-opacity="1" fill-rule="nonzero"/><path fill="#ffffff" d="M 1309.613281 554.160156 C 1309.179688 548.480469 1304.179688 544.21875 1298.550781 544.675781 L 1277.996094 546.261719 C 1272.320312 546.699219 1268.074219 551.652344 1268.511719 557.324219 C 1268.929688 562.734375 1273.441406 566.835938 1278.777344 566.835938 C 1279.042969 566.835938 1279.308594 566.828125 1279.578125 566.808594 L 1300.128906 565.222656 C 1305.804688 564.785156 1310.054688 559.828125 1309.613281 554.160156 Z M 1309.613281 554.160156 " fill-opacity="1" fill-rule="nonzero"/><path fill="#ffffff" d="M 1217.121094 571.578125 C 1217.382812 571.578125 1217.652344 571.566406 1217.921875 571.546875 L 1238.472656 569.96875 C 1244.148438 569.53125 1248.394531 564.578125 1247.957031 558.902344 C 1247.519531 553.234375 1242.554688 549.003906 1236.890625 549.421875 L 1216.339844 551 C 1210.664062 551.4375 1206.414062 556.386719 1206.851562 562.0625 C 1207.273438 567.46875 1211.785156 571.578125 1217.121094 571.578125 Z M 1217.121094 571.578125 " fill-opacity="1" fill-rule="nonzero"/><path fill="#ffffff" d="M 1276.109375 757.003906 C 1278.144531 759.21875 1280.921875 760.34375 1283.714844 760.34375 C 1286.199219 760.34375 1288.691406 759.449219 1290.671875 757.636719 C 1294.867188 753.792969 1295.152344 747.273438 1291.308594 743.078125 L 1277.382812 727.882812 C 1273.539062 723.703125 1267.03125 723.40625 1262.820312 727.25 C 1258.628906 731.09375 1258.339844 737.613281 1262.183594 741.808594 Z M 1276.109375 757.003906 " fill-opacity="1" fill-rule="nonzero"/><path fill="#ffffff" d="M 1179.246094 636.105469 C 1175.046875 639.953125 1174.765625 646.46875 1178.609375 650.667969 L 1192.542969 665.855469 C 1194.574219 668.074219 1197.351562 669.195312 1200.144531 669.195312 C 1202.632812 669.195312 1205.125 668.300781 1207.105469 666.488281 C 1211.300781 662.640625 1211.582031 656.125 1207.738281 651.929688 L 1193.808594 636.738281 C 1189.96875 632.550781 1183.441406 632.261719 1179.246094 636.105469 Z M 1179.246094 636.105469 " fill-opacity="1" fill-rule="nonzero"/><path fill="#ffffff" d="M 1234.324219 711.433594 C 1236.359375 713.652344 1239.136719 714.773438 1241.929688 714.773438 C 1244.417969 714.773438 1246.910156 713.875 1248.890625 712.066406 C 1253.085938 708.222656 1253.367188 701.703125 1249.523438 697.507812 L 1235.59375 682.3125 C 1231.753906 678.117188 1225.226562 677.828125 1221.03125 681.675781 C 1216.832031 685.523438 1216.550781 692.042969 1220.394531 696.238281 Z M 1234.324219 711.433594 " fill-opacity="1" fill-rule="nonzero"/><path fill="#ffffff" d="M 1225.53125 621.425781 C 1229.429688 621.425781 1233.15625 619.207031 1234.898438 615.4375 C 1237.28125 610.273438 1235.023438 604.148438 1229.855469 601.765625 L 1211.140625 593.128906 C 1205.96875 590.746094 1199.847656 593.011719 1197.460938 598.171875 C 1195.082031 603.339844 1197.335938 609.460938 1202.507812 611.847656 L 1221.222656 620.480469 C 1222.621094 621.125 1224.089844 621.425781 1225.53125 621.425781 Z M 1225.53125 621.425781 " fill-opacity="1" fill-rule="nonzero"/><path fill="#ffffff" d="M 1314.800781 663.660156 L 1333.515625 672.296875 C 1334.914062 672.9375 1336.382812 673.246094 1337.828125 673.246094 C 1341.722656 673.246094 1345.453125 671.023438 1347.191406 667.253906 C 1349.574219 662.085938 1347.316406 655.964844 1342.152344 653.578125 L 1323.433594 644.945312 C 1318.261719 642.5625 1312.144531 644.820312 1309.757812 649.988281 C 1307.375 655.152344 1309.632812 661.277344 1314.800781 663.660156 Z M 1314.800781 663.660156 " fill-opacity="1" fill-rule="nonzero"/><path fill="#ffffff" d="M 1281.679688 647.335938 C 1285.574219 647.335938 1289.304688 645.117188 1291.042969 641.347656 C 1293.429688 636.1875 1291.171875 630.0625 1286.003906 627.679688 L 1267.289062 619.039062 C 1262.125 616.644531 1255.988281 618.90625 1253.613281 624.078125 C 1251.222656 629.238281 1253.484375 635.359375 1258.652344 637.746094 L 1277.367188 646.386719 C 1278.765625 647.035156 1280.230469 647.335938 1281.679688 647.335938 Z M 1281.679688 647.335938 " fill-opacity="1" fill-rule="nonzero"/><path fill="#ffffff" d="M 769.28125 933.695312 C 768.664062 933.203125 766.15625 932.207031 763.828125 932.207031 C 735.609375 938.152344 597.945312 982.671875 588.429688 1280.421875 C 589.070312 1296.480469 596.398438 1344.355469 620.792969 1344.355469 C 624.171875 1344.355469 627.945312 1343.5625 632.046875 1341.992188 C 641.347656 1333.910156 693.019531 1290.554688 734.164062 1287.515625 C 736.921875 1287.375 795.304688 1283.761719 802.40625 1225.027344 C 802.980469 1221.988281 846.652344 996.527344 769.28125 933.695312 Z M 742.59375 1172.160156 C 741.597656 1175.472656 717.429688 1253.355469 651.59375 1261.847656 C 651.144531 1261.898438 650.703125 1261.925781 650.257812 1261.925781 C 645.15625 1261.925781 640.722656 1258.132812 640.054688 1252.941406 C 639.324219 1247.296875 643.308594 1242.136719 648.957031 1241.398438 C 701.46875 1234.636719 722.652344 1166.890625 722.863281 1166.214844 C 724.515625 1160.78125 730.265625 1157.683594 735.707031 1159.34375 C 741.152344 1160.980469 744.234375 1166.71875 742.59375 1172.160156 Z M 742.59375 1048.515625 C 741.597656 1051.828125 717.429688 1129.710938 651.59375 1138.203125 C 651.144531 1138.253906 650.703125 1138.28125 650.257812 1138.28125 C 645.15625 1138.28125 640.722656 1134.488281 640.054688 1129.296875 C 639.324219 1123.652344 643.308594 1118.488281 648.957031 1117.753906 C 701.46875 1110.992188 722.652344 1043.246094 722.863281 1042.570312 C 724.515625 1037.136719 730.265625 1034.039062 735.707031 1035.699219 C 741.152344 1037.335938 744.234375 1043.074219 742.59375 1048.515625 Z M 742.59375 1048.515625 " fill-opacity="1" fill-rule="nonzero"/><path fill="#ffffff" d="M 990.921875 932.257812 C 987.8125 932.128906 985.367188 933.195312 984.738281 933.707031 C 907.382812 996.527344 951.054688 1221.988281 951.507812 1224.265625 C 958.773438 1284.144531 1017.085938 1287.382812 1019.5625 1287.496094 C 1060.992188 1290.554688 1112.6875 1333.910156 1121.988281 1341.992188 C 1126.085938 1343.5625 1129.863281 1344.355469 1133.238281 1344.355469 C 1157.726562 1344.355469 1164.988281 1296.480469 1165.601562 1279.71875 C 1156.089844 982.671875 1018.421875 938.152344 990.921875 932.257812 Z M 1083.160156 1261.925781 C 1082.71875 1261.925781 1082.273438 1261.898438 1081.828125 1261.847656 C 1015.992188 1253.355469 991.824219 1175.472656 990.824219 1172.160156 C 989.183594 1166.71875 992.269531 1160.980469 997.714844 1159.34375 C 1003.164062 1157.683594 1008.90625 1160.78125 1010.558594 1166.214844 C 1010.769531 1166.890625 1031.949219 1234.636719 1084.464844 1241.398438 C 1090.109375 1242.136719 1094.097656 1247.296875 1093.367188 1252.941406 C 1092.699219 1258.132812 1088.265625 1261.925781 1083.160156 1261.925781 Z M 1083.160156 1138.28125 C 1082.71875 1138.28125 1082.273438 1138.253906 1081.828125 1138.203125 C 1015.992188 1129.710938 991.824219 1051.828125 990.824219 1048.515625 C 989.183594 1043.074219 992.269531 1037.335938 997.714844 1035.699219 C 1003.164062 1034.039062 1008.90625 1037.136719 1010.558594 1042.570312 C 1010.769531 1043.246094 1031.949219 1110.992188 1084.464844 1117.753906 C 1090.109375 1118.488281 1094.097656 1123.652344 1093.367188 1129.296875 C 1092.699219 1134.488281 1088.265625 1138.28125 1083.160156 1138.28125 Z M 1083.160156 1138.28125 " fill-opacity="1" fill-rule="nonzero"/><g clip-path="url(#6cccb6d2c5)"><path fill="#ffffff" d="M 1396.601562 1052.925781 C 1396.554688 1052.542969 1396.492188 1052.160156 1396.40625 1051.777344 C 1345.722656 831.496094 1069.050781 771.632812 1057.421875 769.21875 C 1046.78125 766.875 1042.335938 752.910156 1042.703125 740.925781 C 1043.167969 726.0625 1050.585938 709.972656 1066.132812 707.539062 C 1108.050781 700.984375 1128.921875 683.835938 1140.570312 646.394531 L 1141.375 643.960938 C 1146.449219 628.898438 1154.78125 604.148438 1140.789062 595.851562 C 1137.304688 592.167969 1127.65625 580.285156 1122.316406 572.585938 L 1146.519531 565.5 C 1150.851562 564.214844 1162.371094 560.816406 1163.585938 548.242188 C 1164.132812 542.488281 1164.550781 536.714844 1164.964844 530.929688 L 1165.167969 528.082031 C 1170.957031 524.851562 1186.21875 516.945312 1199.902344 510 C 1211.097656 504.496094 1215.0625 496.484375 1216.414062 490.730469 C 1219.957031 475.6875 1209.535156 461.433594 1208.296875 459.808594 L 1131.390625 359.996094 C 1137.664062 310.652344 1125.609375 266.023438 1096.410156 230.6875 C 1061.394531 188.3125 1003.609375 162.402344 937.875 159.59375 C 908.761719 158.300781 872.441406 164.140625 838.449219 175.109375 C 765.835938 198.480469 708.773438 254.605469 677.785156 333.140625 C 645.644531 414.601562 658.964844 497.972656 715.292969 567.890625 L 721.429688 575.464844 C 752.742188 614.035156 785.113281 653.921875 774.316406 702.878906 C 766.832031 736.824219 739.921875 746.726562 708.765625 758.1875 C 699.527344 761.582031 689.972656 765.097656 680.742188 769.359375 C 647.511719 784.710938 613.15625 800.589844 580.101562 818.027344 C 495.28125 862.769531 391.6875 943.980469 380.011719 1075.835938 L 310.324219 1466.191406 C 309.785156 1469.1875 310.609375 1472.277344 312.566406 1474.613281 C 314.523438 1476.957031 317.417969 1478.304688 320.46875 1478.304688 L 1433.566406 1478.304688 C 1433.632812 1478.304688 1433.707031 1478.304688 1433.769531 1478.304688 C 1439.464844 1478.304688 1444.078125 1473.695312 1444.078125 1468 C 1444.078125 1466.886719 1443.902344 1465.820312 1443.574219 1464.8125 Z M 907.9375 808.5625 C 913.628906 808.5625 918.242188 813.175781 918.242188 818.867188 C 918.242188 824.5625 913.628906 829.171875 907.9375 829.171875 C 902.246094 829.171875 897.628906 824.5625 897.628906 818.867188 C 897.628906 813.175781 902.246094 808.5625 907.9375 808.5625 Z M 711.257812 765.632812 C 716.949219 765.632812 721.566406 770.246094 721.566406 775.9375 C 721.566406 781.625 716.949219 786.238281 711.257812 786.238281 C 705.566406 786.238281 700.953125 781.625 700.953125 775.9375 C 700.953125 770.246094 705.566406 765.632812 711.257812 765.632812 Z M 574.054688 1457.699219 L 553.9375 1403.550781 L 531.671875 1457.699219 L 509.386719 1457.699219 L 544.894531 1371.351562 C 546.511719 1367.429688 550.636719 1365.289062 554.601562 1364.964844 C 558.84375 1365.035156 562.609375 1367.699219 564.089844 1371.675781 L 596.046875 1457.699219 Z M 1112.511719 1360.394531 L 1110.925781 1359.730469 L 1109.636719 1358.574219 C 1109.105469 1358.101562 1055.777344 1310.828125 1018.347656 1308.0625 C 991.621094 1306.894531 938.542969 1288.523438 931.164062 1227.503906 C 930.332031 1223.367188 920.496094 1172.515625 918.519531 1111.917969 L 886.300781 1079.789062 C 882.078125 1075.585938 874.667969 1075.332031 870.117188 1079.246094 L 835.605469 1109 C 833.855469 1171.035156 823.652344 1223.710938 822.746094 1228.269531 C 815.492188 1288.523438 762.414062 1306.894531 735.378906 1308.082031 C 704.558594 1310.367188 659.238281 1345.304688 644.398438 1358.574219 L 643.113281 1359.730469 L 641.523438 1360.394531 C 634.308594 1363.425781 627.332031 1364.964844 620.792969 1364.964844 C 571.492188 1364.964844 567.953125 1283.914062 567.828125 1280.460938 C 577.582031 974.539062 716.457031 921.191406 758.785156 912.113281 C 766.226562 910.503906 776.472656 913.007812 782.261719 917.6875 C 805.445312 936.515625 819.21875 966.710938 827.007812 1001.011719 L 845.972656 984.542969 L 841.609375 819.136719 C 841.457031 813.449219 845.945312 808.71875 851.636719 808.566406 C 857.058594 808.035156 862.066406 812.90625 862.210938 818.59375 L 866.835938 993.71875 L 831.371094 1024.527344 C 834.121094 1043.222656 835.453125 1062.582031 835.769531 1081.640625 L 856.65625 1063.640625 C 869.480469 1052.582031 888.898438 1053.265625 900.855469 1065.199219 L 918.222656 1082.519531 C 918.515625 1063.1875 919.859375 1043.507812 922.652344 1024.519531 L 887.15625 993.6875 L 891.824219 859.71875 C 892.019531 854.035156 896.871094 849.414062 902.480469 849.789062 C 908.171875 849.980469 912.621094 854.75 912.425781 860.445312 L 908.101562 984.570312 L 927.015625 1001.003906 C 934.804688 966.722656 948.578125 936.523438 971.757812 917.699219 C 977.570312 913.007812 987.804688 910.503906 995.253906 912.113281 C 1037.578125 921.191406 1176.453125 974.539062 1186.207031 1279.757812 C 1186.078125 1283.914062 1182.539062 1364.964844 1133.238281 1364.964844 C 1126.703125 1364.964844 1119.726562 1363.425781 1112.511719 1360.394531 Z M 1223.359375 1457.699219 L 1203.246094 1403.550781 L 1180.976562 1457.699219 L 1158.691406 1457.699219 L 1194.203125 1371.351562 C 1195.816406 1367.429688 1199.9375 1365.289062 1203.910156 1364.964844 C 1208.152344 1365.035156 1211.914062 1367.699219 1213.394531 1371.675781 L 1245.351562 1457.699219 Z M 1223.359375 1457.699219 " fill-opacity="1" fill-rule="nonzero"/></g></svg>