<svg xmlns="http://www.w3.org/2000/svg" xmlns:xlink="http://www.w3.org/1999/xlink" width="2300" zoomAndPan="magnify" viewBox="0 0 1724.88 1724.999932" height="2300" preserveAspectRatio="xMidYMid meet" version="1.0"><defs><clipPath id="f4099ee721"><path d="M 7.308594 7.371094 L 1717.941406 7.371094 L 1717.941406 1718 L 7.308594 1718 Z M 7.308594 7.371094 " clip-rule="nonzero"/></clipPath><clipPath id="154df79378"><path d="M 914.714844 219.558594 L 1198.042969 219.558594 L 1198.042969 605.429688 L 914.714844 605.429688 Z M 914.714844 219.558594 " clip-rule="nonzero"/></clipPath><clipPath id="d750fe21af"><path d="M 638.058594 523.039062 L 1047.242188 523.039062 L 1047.242188 1696.957031 L 638.058594 1696.957031 Z M 638.058594 523.039062 " clip-rule="nonzero"/></clipPath></defs><g clip-path="url(#f4099ee721)"><path fill="#52c000" d="M 862.625 7.371094 C 390.246094 7.371094 7.308594 390.308594 7.308594 862.683594 C 7.308594 1335.0625 390.246094 1718 862.625 1718 C 1335.003906 1718 1717.941406 1335.0625 1717.941406 862.683594 C 1717.941406 390.308594 1335.003906 7.371094 862.625 7.371094 " fill-opacity="1" fill-rule="nonzero"/></g><g clip-path="url(#154df79378)"><path fill="#ffffff" d="M 1101.40625 225.023438 C 1066.75 214.882812 1030.273438 218.953125 998.699219 236.445312 C 967.117188 253.9375 944.335938 282.707031 934.546875 317.449219 L 922.1875 370.101562 C 922.125 370.363281 922.050781 370.625 921.96875 370.886719 C 915.742188 390.855469 911.308594 426.402344 919.3125 460.871094 C 933.921875 523.820312 994.089844 581.65625 1069.039062 604.796875 C 1069.285156 604.878906 1069.527344 604.960938 1069.769531 605.050781 C 1070.066406 605.035156 1128.625 613.164062 1192.820312 390.574219 C 1213.1875 319.957031 1172.175781 245.691406 1101.40625 225.023438 " fill-opacity="1" fill-rule="nonzero"/></g><g clip-path="url(#d750fe21af)"><path fill="#ffffff" d="M 1004.007812 1371.476562 C 996.910156 1351.589844 989.6875 1335.46875 982.917969 1320.390625 C 973.828125 1300.144531 965.242188 1281.023438 959.542969 1257.359375 C 949.140625 1214.164062 949.503906 1170.148438 949.957031 1114.414062 C 950.449219 1054.519531 951.054688 979.972656 938.675781 876.214844 C 927.671875 783.953125 858.210938 746.910156 855.257812 745.378906 C 849.632812 742.460938 847.414062 735.527344 850.320312 729.894531 C 853.230469 724.269531 860.128906 722.039062 865.777344 724.925781 C 869.171875 726.664062 949.023438 768.707031 961.523438 873.496094 C 974.074219 978.699219 973.457031 1054.054688 972.964844 1114.601562 C 972.519531 1168.753906 972.171875 1211.527344 981.914062 1251.980469 C 984.5 1262.703125 987.96875 1273.175781 992.023438 1283.433594 C 994.015625 1288.46875 996.140625 1293.457031 998.316406 1298.417969 C 999.65625 1301.492188 1001.730469 1310.082031 1006.65625 1308.5625 C 1010.222656 1307.460938 1009.4375 1302 1009.691406 1299.109375 C 1010.046875 1295.042969 1010.40625 1290.976562 1010.761719 1286.914062 C 1011.492188 1278.578125 1012.21875 1270.246094 1012.933594 1261.910156 C 1014.421875 1244.730469 1015.886719 1227.554688 1017.328125 1210.371094 C 1020.195312 1176.246094 1022.972656 1142.109375 1025.574219 1107.960938 C 1027.824219 1078.472656 1029.96875 1048.980469 1031.730469 1019.457031 C 1032.773438 1002.011719 1033.777344 984.539062 1034.085938 967.066406 C 1035.234375 903.046875 999.410156 829.71875 970.621094 770.796875 C 950.316406 729.230469 935.644531 699.203125 937.578125 680.210938 C 940.695312 649.535156 961.835938 625.957031 981.644531 610.277344 C 989.457031 604.09375 989.332031 592.066406 981.292969 586.179688 C 959.179688 569.992188 940.316406 550.835938 925.753906 529.730469 C 920.3125 521.847656 908.960938 521.285156 902.238281 528.117188 C 890.460938 540.074219 875.371094 553.160156 857.808594 568.3125 C 781.335938 634.324219 665.765625 734.070312 654.171875 902.554688 C 645.277344 1031.8125 665.132812 1114.804688 682.65625 1188.03125 C 694.933594 1239.351562 705.539062 1283.671875 702.734375 1332.53125 C 699.449219 1389.753906 683.847656 1429.808594 668.761719 1468.539062 C 653.175781 1508.558594 638.453125 1546.359375 638.453125 1600.988281 C 638.453125 1626.695312 641.289062 1651.0625 646.890625 1673.421875 C 650.355469 1687.289062 662.878906 1696.976562 677.34375 1696.976562 L 908.667969 1696.976562 C 919.5625 1696.976562 927 1685.945312 922.878906 1675.867188 C 906.523438 1635.847656 880.796875 1570.765625 864.003906 1517.878906 C 841.203125 1446.085938 841.460938 1408.328125 841.703125 1371.816406 C 841.914062 1340.878906 842.109375 1311.664062 827.203125 1261.890625 C 824.097656 1251.523438 820.992188 1241.257812 817.898438 1231.035156 C 787.867188 1131.71875 759.492188 1037.910156 740.199219 886.167969 C 739.398438 879.863281 743.859375 874.109375 750.164062 873.308594 C 756.464844 872.492188 762.21875 876.964844 763.023438 883.269531 C 782.074219 1033.097656 810.175781 1126.011719 839.921875 1224.378906 C 843.023438 1234.621094 846.132812 1244.90625 849.246094 1255.292969 C 865.140625 1308.367188 864.925781 1340.703125 864.710938 1371.96875 C 864.480469 1406.695312 864.234375 1442.597656 885.933594 1510.921875 C 905.8125 1573.527344 938.46875 1653.664062 952.597656 1687.578125 C 954.972656 1693.292969 960.550781 1696.976562 966.742188 1696.976562 L 1014.574219 1696.976562 C 1022.101562 1696.976562 1029.628906 1694.777344 1035.460938 1690.019531 C 1043.339844 1683.585938 1047.523438 1674.273438 1047.140625 1664.378906 C 1040.996094 1505.832031 1023.230469 1425.84375 1004.496094 1372.832031 C 1004.308594 1372.386719 1004.136719 1371.945312 1004.007812 1371.476562 " fill-opacity="1" fill-rule="nonzero"/></g><path fill="#ffffff" d="M 730.261719 516.816406 C 708.253906 536.515625 690.261719 553.832031 673.644531 571.300781 C 664.910156 580.5 665.28125 595.089844 674.480469 603.828125 C 678.773438 607.902344 684.402344 610.152344 690.324219 610.152344 C 696.605469 610.152344 702.679688 607.535156 707.003906 602.996094 C 722.757812 586.429688 739.902344 569.933594 760.953125 551.097656 C 770.40625 542.625 771.214844 528.058594 762.753906 518.617188 C 758.394531 513.75 752.144531 510.953125 745.605469 510.953125 C 739.9375 510.953125 734.492188 513.035156 730.261719 516.816406 " fill-opacity="1" fill-rule="nonzero"/><path fill="#ffffff" d="M 573.203125 932.851562 C 573.296875 926.707031 570.996094 920.898438 566.722656 916.480469 C 562.445312 912.070312 556.703125 909.585938 550.203125 909.492188 C 537.714844 909.492188 527.386719 919.640625 527.191406 932.121094 C 527.105469 937.429688 527.0625 942.664062 527.0625 947.835938 C 527.0625 969.011719 527.78125 990.15625 529.195312 1010.691406 C 530.027344 1022.703125 540.101562 1032.109375 552.136719 1032.109375 C 552.671875 1032.109375 553.21875 1032.089844 553.730469 1032.050781 C 559.859375 1031.636719 565.464844 1028.847656 569.5 1024.214844 C 573.539062 1019.582031 575.527344 1013.65625 575.101562 1007.523438 C 573.761719 988.058594 573.078125 967.980469 573.078125 947.835938 C 573.078125 942.902344 573.121094 937.914062 573.203125 932.851562 " fill-opacity="1" fill-rule="nonzero"/><path fill="#ffffff" d="M 654.511719 627.199219 C 650.527344 624.25 645.800781 622.695312 640.847656 622.695312 C 633.578125 622.695312 626.660156 626.175781 622.335938 632.015625 C 606.003906 654.082031 591.648438 676.925781 579.667969 699.894531 C 573.804688 711.144531 578.1875 725.054688 589.433594 730.921875 C 592.707031 732.628906 596.382812 733.53125 600.058594 733.53125 C 608.675781 733.53125 616.5 728.792969 620.472656 721.160156 C 631.347656 700.308594 644.421875 679.515625 659.328125 659.375 C 666.875 649.175781 664.71875 634.75 654.511719 627.199219 " fill-opacity="1" fill-rule="nonzero"/><path fill="#ffffff" d="M 577.632812 759.25 C 575.402344 758.558594 573.097656 758.214844 570.78125 758.214844 C 560.664062 758.214844 551.839844 764.699219 548.816406 774.355469 C 540.859375 799.832031 535.15625 826.351562 531.867188 853.183594 C 530.324219 865.78125 539.316406 877.277344 551.941406 878.820312 C 552.875 878.929688 553.808594 878.984375 554.726562 878.984375 C 566.320312 878.984375 576.132812 870.300781 577.546875 858.78125 C 580.496094 834.710938 585.609375 810.917969 592.746094 788.070312 C 596.523438 775.96875 589.75 763.039062 577.632812 759.25 " fill-opacity="1" fill-rule="nonzero"/><path fill="#ffffff" d="M 786.226562 498.734375 C 790.59375 503.664062 796.871094 506.488281 803.460938 506.488281 C 809.082031 506.488281 814.492188 504.441406 818.699219 500.71875 C 847.984375 474.820312 867.628906 454.617188 875.054688 433.980469 C 879.34375 422.042969 873.125 408.84375 861.175781 404.550781 C 858.667969 403.652344 856.050781 403.191406 853.40625 403.191406 C 843.726562 403.191406 835.027344 409.3125 831.75 418.417969 C 827.40625 430.488281 807.300781 449.378906 788.210938 466.261719 C 778.707031 474.667969 777.816406 489.234375 786.226562 498.734375 " fill-opacity="1" fill-rule="nonzero"/><path fill="#ffffff" d="M 550.078125 428.890625 L 699.667969 428.890625 L 682.480469 442.175781 C 672.449219 449.941406 670.597656 464.410156 678.359375 474.441406 C 682.75 480.117188 689.386719 483.375 696.566406 483.375 C 701.703125 483.375 706.566406 481.710938 710.636719 478.5625 L 781.5 423.777344 L 781.914062 423.34375 C 782.730469 422.652344 783.492188 421.914062 784.152344 421.167969 C 784.59375 420.679688 785.007812 420.175781 785.367188 419.6875 C 786 418.851562 786.558594 417.96875 787.191406 416.84375 C 787.4375 416.414062 787.675781 415.980469 787.898438 415.5 C 788.382812 414.441406 788.765625 413.332031 789.070312 412.277344 L 789.382812 411.292969 L 789.480469 410.855469 C 789.859375 409.144531 790.042969 407.515625 790.042969 405.886719 C 790.042969 404.257812 789.859375 402.636719 789.480469 400.933594 C 789.375 400.453125 789.234375 399.992188 789.085938 399.570312 C 788.761719 398.429688 788.378906 397.320312 787.886719 396.257812 C 787.675781 395.8125 787.441406 395.375 787.085938 394.753906 C 786.574219 393.828125 786.011719 392.9375 785.382812 392.109375 C 785.015625 391.613281 784.628906 391.152344 784.1875 390.648438 C 783.496094 389.875 782.753906 389.152344 782.308594 388.800781 L 781.59375 388.070312 L 710.632812 333.207031 C 706.566406 330.0625 701.699219 328.398438 696.566406 328.398438 C 689.382812 328.398438 682.742188 331.65625 678.351562 337.332031 C 670.59375 347.363281 672.445312 361.839844 682.476562 369.597656 L 699.667969 382.890625 L 550.078125 382.890625 C 537.386719 382.890625 527.066406 393.207031 527.066406 405.886719 C 527.066406 418.574219 537.386719 428.890625 550.078125 428.890625 " fill-opacity="1" fill-rule="nonzero"/></svg>