<svg xmlns="http://www.w3.org/2000/svg" xmlns:xlink="http://www.w3.org/1999/xlink" width="2160" zoomAndPan="magnify" viewBox="0 0 1620 1619.99993" height="2160" preserveAspectRatio="xMidYMid meet" version="1.0"><defs><clipPath id="3f6b0387a5"><path d="M 28.390625 29.21875 L 1600.390625 29.21875 L 1600.390625 1601.21875 L 28.390625 1601.21875 Z M 28.390625 29.21875 " clip-rule="nonzero"/></clipPath><clipPath id="48c87be235"><path d="M 284 470 L 1196 470 L 1196 1476.515625 L 284 1476.515625 Z M 284 470 " clip-rule="nonzero"/></clipPath><clipPath id="9599d5c4ce"><path d="M 473 210 L 604 210 L 604 476 L 473 476 Z M 473 210 " clip-rule="nonzero"/></clipPath><clipPath id="5ff5a7d699"><path d="M 394.941406 309.1875 L 474.0625 210.164062 L 682.65625 376.828125 L 603.535156 475.851562 Z M 394.941406 309.1875 " clip-rule="nonzero"/></clipPath><clipPath id="98c5d45cd0"><path d="M 394.941406 309.1875 L 474.0625 210.164062 L 682.65625 376.828125 L 603.535156 475.851562 Z M 394.941406 309.1875 " clip-rule="nonzero"/></clipPath><clipPath id="9412a7239a"><path d="M 673 145 L 780 145 L 780 441 L 673 441 Z M 673 145 " clip-rule="nonzero"/></clipPath><clipPath id="92667a683b"><path d="M 617.027344 194.054688 L 734.148438 145.59375 L 836.226562 392.308594 L 719.105469 440.769531 Z M 617.027344 194.054688 " clip-rule="nonzero"/></clipPath><clipPath id="d7fb1ebe3d"><path d="M 617.027344 194.054688 L 734.148438 145.59375 L 836.226562 392.308594 L 719.105469 440.769531 Z M 617.027344 194.054688 " clip-rule="nonzero"/></clipPath><clipPath id="d51caf73ee"><path d="M 836 177 L 1004 177 L 1004 421 L 836 421 Z M 836 177 " clip-rule="nonzero"/></clipPath><clipPath id="60516ede1d"><path d="M 878.871094 157.023438 L 1004.027344 177.066406 L 961.804688 440.707031 L 836.648438 420.660156 Z M 878.871094 157.023438 " clip-rule="nonzero"/></clipPath><clipPath id="1133143049"><path d="M 878.871094 157.023438 L 1004.027344 177.066406 L 961.804688 440.707031 L 836.648438 420.660156 Z M 878.871094 157.023438 " clip-rule="nonzero"/></clipPath><clipPath id="ac5b67dfd2"><path d="M 656.132812 655.777344 L 917.132812 655.777344 L 917.132812 916.777344 L 656.132812 916.777344 Z M 656.132812 655.777344 " clip-rule="nonzero"/></clipPath><clipPath id="d390d385f1"><path d="M 786.632812 655.777344 C 714.5625 655.777344 656.132812 714.203125 656.132812 786.277344 C 656.132812 858.351562 714.5625 916.777344 786.632812 916.777344 C 858.707031 916.777344 917.132812 858.351562 917.132812 786.277344 C 917.132812 714.203125 858.707031 655.777344 786.632812 655.777344 " clip-rule="nonzero"/></clipPath><clipPath id="4f9ad5a957"><path d="M 707.191406 706.835938 L 866.191406 706.835938 L 866.191406 865.835938 L 707.191406 865.835938 Z M 707.191406 706.835938 " clip-rule="nonzero"/></clipPath><clipPath id="c31f0faf7d"><path d="M 786.691406 706.835938 C 742.785156 706.835938 707.191406 742.429688 707.191406 786.335938 C 707.191406 830.242188 742.785156 865.835938 786.691406 865.835938 C 830.597656 865.835938 866.191406 830.242188 866.191406 786.335938 C 866.191406 742.429688 830.597656 706.835938 786.691406 706.835938 " clip-rule="nonzero"/></clipPath><clipPath id="c8ab5862d5"><path d="M 803.441406 616.367188 L 956.441406 616.367188 L 956.441406 769.367188 L 803.441406 769.367188 Z M 803.441406 616.367188 " clip-rule="nonzero"/></clipPath><clipPath id="131a688824"><path d="M 617.105469 803.210938 L 770.105469 803.210938 L 770.105469 956.210938 L 617.105469 956.210938 Z M 617.105469 803.210938 " clip-rule="nonzero"/></clipPath></defs><rect x="-162" width="1944" fill="#ffffff" y="-161.999993" height="1943.999916" fill-opacity="1"/><rect x="-162" width="1944" fill="#ffffff" y="-161.999993" height="1943.999916" fill-opacity="1"/><rect x="-162" width="1944" fill="#ffffff" y="-161.999993" height="1943.999916" fill-opacity="1"/><g clip-path="url(#3f6b0387a5)"><path fill="#52c000" d="M 814.390625 29.21875 C 380.296875 29.21875 28.390625 381.125 28.390625 815.21875 C 28.390625 1249.316406 380.296875 1601.21875 814.390625 1601.21875 C 1248.488281 1601.21875 1600.390625 1249.316406 1600.390625 815.21875 C 1600.390625 381.125 1248.488281 29.21875 814.390625 29.21875 " fill-opacity="1" fill-rule="nonzero"/></g><g clip-path="url(#48c87be235)"><path fill="#ffffff" d="M 606.394531 1476.34375 L 1097.644531 1476.34375 C 1077.003906 1379.316406 1052.300781 1219.695312 1062.933594 1180.570312 C 1080.449219 1114.21875 1137.042969 1064.136719 1158.3125 1010.933594 C 1266.507812 740.511719 1134.300781 505.089844 835.292969 473.851562 C 571.269531 446.269531 424.410156 596.226562 403.761719 751.15625 C 401.574219 767.742188 403.761719 784.332031 411.582031 801.546875 C 375.3125 858.195312 291.816406 941.765625 284.625 981.828125 C 280.246094 1005.925781 308.703125 1014.378906 322.464844 1022.828125 C 335.597656 1027.210938 349.980469 1024.078125 358.734375 1034.722656 C 364.988281 1042.546875 356.546875 1055.691406 354.667969 1065.394531 C 354.355469 1081.355469 335.597656 1089.183594 337.472656 1103.890625 C 339.351562 1116.410156 349.980469 1121.417969 359.675781 1129.242188 C 369.996094 1137.378906 333.40625 1153.03125 345.289062 1167.429688 C 357.484375 1181.511719 375.308594 1197.789062 369.050781 1217.816406 C 359.984375 1248.804688 342.472656 1281.039062 356.859375 1305.140625 C 371.246094 1328.925781 391.253906 1343.011719 422.210938 1349.269531 C 470.679688 1349.269531 519.460938 1350.214844 568.242188 1350.214844 C 585.125 1364.921875 597.007812 1412.496094 606.394531 1476.347656 L 606.390625 1476.347656 Z M 606.394531 1476.34375 " fill-opacity="1" fill-rule="nonzero"/></g><g clip-path="url(#9599d5c4ce)"><g clip-path="url(#5ff5a7d699)"><g clip-path="url(#98c5d45cd0)"><path fill="#ffffff" d="M 525.976562 337.277344 L 473.996094 210.234375 L 509.945312 400.898438 L 551.648438 348.707031 L 603.628906 475.75 L 567.675781 285.085938 L 525.976562 337.277344 " fill-opacity="1" fill-rule="nonzero"/></g></g></g><g clip-path="url(#9412a7239a)"><g clip-path="url(#92667a683b)"><g clip-path="url(#d7fb1ebe3d)"><path fill="#ffffff" d="M 718.171875 281.96875 L 734.054688 145.625 L 673.390625 329.921875 L 735.121094 304.378906 L 719.234375 440.722656 L 779.898438 256.425781 L 718.171875 281.96875 " fill-opacity="1" fill-rule="nonzero"/></g></g></g><g clip-path="url(#d51caf73ee)"><g clip-path="url(#60516ede1d)"><g clip-path="url(#1133143049)"><path fill="#ffffff" d="M 919.007812 284.882812 L 1003.933594 177.046875 L 855.746094 302.289062 L 921.710938 312.855469 L 836.78125 420.691406 L 984.96875 295.449219 L 919.007812 284.882812 " fill-opacity="1" fill-rule="nonzero"/></g></g></g><g clip-path="url(#ac5b67dfd2)"><g clip-path="url(#d390d385f1)"><path stroke-linecap="butt" transform="matrix(0.750067, 0, 0, 0.750067, 656.134491, 655.777604)" fill="none" stroke-linejoin="miter" d="M 173.982154 -0.000347422 C 77.897024 -0.000347422 -0.00223821 77.893707 -0.00223821 173.984045 C -0.00223821 270.074383 77.897024 347.968437 173.982154 347.968437 C 270.072492 347.968437 347.966547 270.074383 347.966547 173.984045 C 347.966547 77.893707 270.072492 -0.000347422 173.982154 -0.000347422 " stroke="#52c000" stroke-width="30" stroke-opacity="1" stroke-miterlimit="4"/></g></g><g clip-path="url(#4f9ad5a957)"><g clip-path="url(#c31f0faf7d)"><path stroke-linecap="butt" transform="matrix(0.750664, 0, 0, 0.750664, 707.192087, 706.835248)" fill="none" stroke-linejoin="miter" d="M 105.905349 0.000918512 C 47.415455 0.000918512 -0.000906832 47.417281 -0.000906832 105.907174 C -0.000906832 164.397068 47.415455 211.81343 105.905349 211.81343 C 164.395242 211.81343 211.811605 164.397068 211.811605 105.907174 C 211.811605 47.417281 164.395242 0.000918512 105.905349 0.000918512 " stroke="#52c000" stroke-width="30" stroke-opacity="1" stroke-miterlimit="4"/></g></g><g clip-path="url(#c8ab5862d5)"><path fill="#52c000" d="M 956.441406 769.367188 L 944.199219 769.367188 C 944.199219 686.496094 886.316406 628.609375 803.441406 628.609375 L 803.441406 616.367188 C 892.09375 616.367188 956.441406 680.714844 956.441406 769.367188 Z M 956.441406 769.367188 " fill-opacity="1" fill-rule="nonzero"/></g><g clip-path="url(#131a688824)"><path fill="#52c000" d="M 617.105469 803.210938 L 629.347656 803.210938 C 629.347656 886.082031 687.230469 943.972656 770.105469 943.972656 L 770.105469 956.210938 C 681.453125 956.210938 617.105469 891.867188 617.105469 803.210938 Z M 617.105469 803.210938 " fill-opacity="1" fill-rule="nonzero"/></g></svg>